<?xml version="1.0" encoding="UTF-8"?>
<svg version="1.1" xmlns="http://www.w3.org/2000/svg" width="400" height="400">
<path d="M0 0 C132 0 264 0 400 0 C400 132 400 264 400 400 C268 400 136 400 0 400 C0 268 0 136 0 0 Z " fill="#01ADD5" transform="translate(0,0)"/>
<path d="M0 0 C3.63306487 0.01069049 7.26563203 0.00006859 10.89868164 -0.01269531 C62.08398894 -0.04520389 62.08398894 -0.04520389 75.33813477 11.26074219 C76.21791992 11.94523437 76.21791992 11.94523437 77.11547852 12.64355469 C83.91308464 18.56357052 89.05657976 28.03212893 89.92456055 36.99169922 C90.00489532 37.7936673 90.0852301 38.59563538 90.16799927 39.42190552 C90.22414398 40.02872162 90.2802887 40.63553772 90.33813477 41.26074219 C89.67275853 41.26313054 89.0073823 41.26551889 88.32184315 41.26797962 C72.13028766 41.32712072 55.9389002 41.40266498 39.74750996 41.4964571 C31.91746173 41.54141895 24.08745904 41.58083268 16.25732422 41.60717773 C9.43241721 41.63015471 2.60765421 41.66354927 -4.21713859 41.70944375 C-7.83069578 41.73338018 -11.44411031 41.75210613 -15.05774498 41.75835609 C-19.09225157 41.76552919 -23.12626173 41.79596022 -27.16064453 41.82836914 C-28.35826416 41.82693405 -29.55588379 41.82549896 -30.78979492 41.82402039 C-32.44086494 41.84282761 -32.44086494 41.84282761 -34.12528992 41.86201477 C-35.07934566 41.86662374 -36.03340139 41.8712327 -37.01636791 41.87598133 C-40.21695629 42.34147457 -42.09219878 43.3129172 -44.66186523 45.26074219 C-45.99846668 48.61667081 -45.99846668 48.61667081 -45.66186523 52.26074219 C-44.01124061 54.87371086 -43.30154829 55.83636558 -40.66186523 57.26074219 C-36.34954351 58.01012728 -32.0756703 57.9193772 -27.70849609 57.87255859 C-26.39080231 57.87822342 -25.07310852 57.88388824 -23.71548462 57.88972473 C-20.85283734 57.90189195 -17.99078631 57.89845044 -15.12815666 57.88289261 C-10.59182414 57.85852275 -6.05601059 57.87009478 -1.51966858 57.88656616 C6.48362458 57.9110576 14.48668127 57.90526836 22.48999023 57.89276123 C34.51165698 57.87419786 46.53327587 57.87919315 58.55490965 57.91279542 C63.05345338 57.9242372 67.5516157 57.91996799 72.05013764 57.90277505 C74.86523244 57.8948081 77.68021926 57.89917237 80.49531174 57.9064846 C82.39904066 57.90766525 84.30276116 57.89394041 86.20643616 57.87956238 C100.67167234 57.94569297 113.46242038 61.39447239 124.15063477 71.51074219 C136.21684589 84.44036734 137.90834187 98.55091981 137.77563477 115.57324219 C137.77325806 116.37466644 137.77088135 117.1760907 137.76843262 118.00180054 C137.6933346 134.31926656 136.13737743 150.17509414 133.33813477 166.26074219 C133.18860352 167.13537109 133.03907227 168.01 132.88500977 168.91113281 C130.38926508 182.71860919 123.67300966 197.71458778 111.85375977 206.00292969 C100.55571659 212.98899781 89.10965544 214.05405975 76.15063477 215.32324219 C74.95180664 215.4421582 74.95180664 215.4421582 73.72875977 215.56347656 C57.57545902 217.0675789 41.42813774 217.49788334 25.21313477 217.51074219 C24.20443329 217.5120816 23.19573181 217.51342102 22.15646362 217.51480103 C7.52852483 217.51063782 -7.01254428 217.04927998 -21.59936523 215.94824219 C-22.4060968 215.88938843 -23.21282837 215.83053467 -24.04400635 215.76989746 C-47.36018326 214.02083954 -65.34632705 210.0107617 -81.57202148 192.15917969 C-106.44872815 161.2382604 -98.26931414 98.20615144 -94.35327148 61.35693359 C-92.12066721 41.6321505 -86.25316985 25.42617121 -70.66186523 12.26074219 C-61.59924657 5.39882688 -50.62336911 3.92633925 -39.66186523 2.26074219 C-38.58960693 2.08124023 -37.51734863 1.90173828 -36.41259766 1.71679688 C-24.30432895 -0.08818235 -12.22226917 -0.0427151 0 0 Z " fill="#FDFEFE" transform="translate(179.661865234375,91.7392578125)"/>
<path d="M0 0 C3.76115969 2.06495042 7.09650288 4.08725592 9 8 C9.56842375 12.88122619 9.4672338 16.67496863 7 21 C6.34 21 5.68 21 5 21 C5.06960938 21.80824219 5.13921875 22.61648437 5.2109375 23.44921875 C5.63719088 31.86264854 5.63719088 31.86264854 3.91015625 34.9453125 C1.11905164 37.53652368 -0.93604916 37.99891609 -4.6875 38.0625 C-8.4032465 36.87065678 -9.13628693 36.32008766 -11 33 C-11.29296875 29.984375 -11.29296875 29.984375 -11.1875 26.75 C-11.16042969 25.67234375 -11.13335937 24.5946875 -11.10546875 23.484375 C-11.07066406 22.66453125 -11.03585937 21.8446875 -11 21 C-11.66 21 -12.32 21 -13 21 C-15.83272271 16.75091594 -15.76806539 12.98854595 -15 8 C-13.35287715 4.77793897 -11.01234488 2.7184383 -8.0625 0.625 C-5.15227888 -0.25688519 -3.03383286 -0.36405994 0 0 Z " fill="#04ADD5" transform="translate(270,200)"/>
<path d="M0 0 C1.8075174 0.48808136 1.8075174 0.48808136 3.65155029 0.98602295 C9.94533985 2.37424834 16.15652066 2.26103432 22.57519531 2.22363281 C23.92487077 2.22310757 25.27454689 2.2235467 26.6242218 2.22486877 C29.51499909 2.22619523 32.4056908 2.2218339 35.29645538 2.21326447 C39.87947285 2.20079817 44.46233484 2.20787649 49.04534912 2.21868896 C62.07243059 2.24704308 75.09937668 2.25964527 88.12646484 2.22998047 C95.3335364 2.21373244 102.54026563 2.21903994 109.74730182 2.24777675 C113.55123734 2.26198925 117.35445987 2.2652688 121.15836334 2.24155426 C124.7407691 2.21922081 128.32207224 2.22515618 131.90443993 2.25153923 C133.82345617 2.25848582 135.74251093 2.23603011 137.66139221 2.2122345 C146.68714948 2.31807387 153.06923567 4.84406108 161 9 C161.99 9.33 162.98 9.66 164 10 C164.33 10.66 164.66 11.32 165 12 C165.99 12.33 166.98 12.66 168 13 C168.2165625 13.9590625 168.2165625 13.9590625 168.4375 14.9375 C168.623125 15.618125 168.80875 16.29875 169 17 C169.59425781 17.24621094 170.18851563 17.49242187 170.80078125 17.74609375 C173.96544923 19.5504604 175.00346029 21.96779359 176.75 25.125 C177.36359375 26.22070312 177.9771875 27.31640625 178.609375 28.4453125 C179.06828125 29.28835937 179.5271875 30.13140625 180 31 C180.99 30.67 181.98 30.34 183 30 C182.67 33.63 182.34 37.26 182 41 C182.66 41 183.32 41 184 41 C184.05012882 46.68846409 184.08605748 52.37679442 184.10986328 58.06542969 C184.11980679 59.9931869 184.13336635 61.9209295 184.15087891 63.84863281 C184.28056875 78.51121429 183.58258678 92.56231279 180.4375 106.9375 C179.59063197 110.94853663 178.84273597 114.85264677 178.5 118.9375 C178.0797547 123.36688548 176.8766647 126.95795296 175 131 C174.01 131.33 173.02 131.66 172 132 C172.19263428 131.40574219 172.38526855 130.81148437 172.58374023 130.19921875 C174.57322483 123.85260866 175.9610163 117.55450796 177.0625 111 C177.30323242 109.64841797 177.30323242 109.64841797 177.54882812 108.26953125 C180.04849225 93.71325424 181.35694636 79.25955702 181.31567383 64.49316406 C181.31247235 62.10436948 181.33626388 59.71677186 181.36132812 57.328125 C181.42817973 41.56750298 178.61835826 29.39102622 167.9375 17.25 C156.6285068 6.65579644 142.23750257 4.6955957 127.46557617 4.74462891 C126.12100005 4.74187382 124.77642555 4.7381908 123.43185425 4.73365784 C120.55416343 4.72559347 117.67655009 4.72336516 114.79884911 4.72560501 C110.24769692 4.72845316 105.69669802 4.71403323 101.14558411 4.69662476 C88.2104416 4.64973169 75.27531174 4.62564061 62.34008789 4.61914062 C55.18258687 4.61539232 48.02526152 4.59739038 40.86783582 4.56404626 C36.34364136 4.54382953 31.81989974 4.54146175 27.2956785 4.55232644 C24.48527054 4.5549309 21.67512743 4.5409446 18.86478806 4.52224541 C16.94050132 4.51437708 15.01616555 4.52636984 13.09190369 4.53892517 C11.94667236 4.52790268 10.80144104 4.51688019 9.62150574 4.50552368 C8.62659717 4.50443415 7.63168859 4.50334461 6.60663128 4.50222206 C3.31772313 3.86854508 2.11512759 2.52534641 0 0 Z " fill="#2BA7C4" transform="translate(135,146)"/>
<path d="M0 0 C3.90232838 5.20310451 5.14344036 9.5672517 5 16 C4.00193565 16.00358253 4.00193565 16.00358253 2.98370838 16.00723743 C-13.20784711 16.06637854 -29.39923456 16.14192279 -45.59062481 16.23571491 C-53.42067303 16.28067676 -61.25067573 16.32009049 -69.08081055 16.34643555 C-75.90571756 16.36941253 -82.73048055 16.40280708 -89.55527335 16.44870156 C-93.16883055 16.47263799 -96.78224508 16.49136394 -100.39587975 16.49761391 C-104.43038634 16.50478701 -108.46439649 16.53521803 -112.4987793 16.56762695 C-113.69639893 16.56619186 -114.89401855 16.56475677 -116.12792969 16.5632782 C-117.22864304 16.57581635 -118.32935638 16.58835449 -119.46342468 16.60127258 C-120.41748042 16.60588155 -121.37153616 16.61049051 -122.35450268 16.61523914 C-125.55506731 17.08072893 -127.43343475 18.04766843 -130 20 C-131.207644 24.07579849 -131.44610971 26.08838451 -129.5625 29.9375 C-129.046875 30.618125 -128.53125 31.29875 -128 32 C-129.98 31.67 -131.96 31.34 -134 31 C-133.67 31.99 -133.34 32.98 -133 34 C-133.66 34 -134.32 34 -135 34 C-134.979375 33.21625 -134.95875 32.4325 -134.9375 31.625 C-134.81315937 29.01885039 -134.81315937 29.01885039 -136 27 C-135.34 27 -134.68 27 -134 27 C-134.165 26.154375 -134.33 25.30875 -134.5 24.4375 C-133.82970447 19.82921825 -131.99039898 18.39980769 -128.49326897 15.4919281 C-123.92237191 12.75678406 -119.32662718 13.07674674 -114.12719727 13.18945312 C-112.37685684 13.18551041 -112.37685684 13.18551041 -110.59115601 13.18148804 C-106.74865849 13.18126709 -102.90854497 13.23079506 -99.06640625 13.28125 C-96.38651179 13.29177796 -93.70673819 13.29963993 -91.02684021 13.30407715 C-85.41560344 13.31876051 -79.80503909 13.35875764 -74.1940918 13.41699219 C-66.30501114 13.49883703 -58.41620685 13.53534116 -50.52677453 13.56250858 C-39.3517813 13.60374855 -28.17673383 13.66647927 -17.00219727 13.77539062 C-15.37242699 13.78649368 -15.37242699 13.78649368 -13.70973206 13.79782104 C-7.73361136 13.86521602 -1.92798903 14.23176469 4 15 C3.67 13.68 3.34 12.36 3 11 C2.34 11 1.68 11 1 11 C0.67 7.37 0.34 3.74 0 0 Z " fill="#EFFEFD" transform="translate(265,117)"/>
<path d="M0 0 C0 0.33 0 0.66 0 1 C-0.96679688 1.21914062 -1.93359375 1.43828125 -2.9296875 1.6640625 C-17.71577194 5.18827603 -28.95755617 11.68298343 -37.3125 24.875 C-42.59265084 34.54661198 -44.80908411 44.12389153 -46.1875 55 C-46.35185547 56.17433594 -46.51621094 57.34867188 -46.68554688 58.55859375 C-48.96075426 75.67331161 -49.17547608 92.94834897 -49.5625 110.1875 C-49.60586896 112.02800072 -49.64948773 113.86849557 -49.69335938 115.70898438 C-49.79843539 120.13926097 -49.90019168 124.56960173 -50 129 C-50.66 129 -51.32 129 -52 129 C-52.1701108 124.12966224 -52.33034751 119.25912558 -52.48217773 114.38818359 C-52.53492753 112.7377082 -52.59018666 111.08731072 -52.64819336 109.43701172 C-53.60023082 82.20046165 -53.60023082 82.20046165 -51 77 C-50.84876169 75.4804236 -50.75118307 73.95527498 -50.68359375 72.4296875 C-50.64169922 71.53378906 -50.59980469 70.63789063 -50.55664062 69.71484375 C-50.51732422 68.77769531 -50.47800781 67.84054688 -50.4375 66.875 C-50.39431641 65.93011719 -50.35113281 64.98523438 -50.30664062 64.01171875 C-50.20040928 61.67462908 -50.09836824 59.3374317 -50 57 C-49.67 57 -49.34 57 -49 57 C-48.92652344 55.96552734 -48.92652344 55.96552734 -48.8515625 54.91015625 C-48.1520851 46.11844892 -47.09122809 38.61194813 -42.88671875 30.796875 C-41.79364159 28.58182877 -41.30551321 26.44410568 -41 24 C-40.34 24 -39.68 24 -39 24 C-38.54625 23.030625 -38.0925 22.06125 -37.625 21.0625 C-36 18 -36 18 -34 17 C-33.566875 15.5459375 -33.566875 15.5459375 -33.125 14.0625 C-32 11 -32 11 -30.0625 9.625 C-28 9 -28 9 -25 9 C-25 8.01 -25 7.02 -25 6 C-21.535 5.505 -21.535 5.505 -18 5 C-18 3.68 -18 2.36 -18 1 C-11.93303301 0.22959149 -6.11485027 -0.09706112 0 0 Z " fill="#27AAC7" transform="translate(133,95)"/>
<path d="M0 0 C0.90371338 0.26917236 1.80742676 0.53834473 2.73852539 0.81567383 C11.96381502 3.43714864 20.85256946 4.90121732 30.4375 5.6875 C31.71431641 5.80416016 32.99113281 5.92082031 34.30664062 6.04101562 C38.20271232 6.38842353 42.09992587 6.70106602 46 7 C47.23137695 7.09788818 48.46275391 7.19577637 49.73144531 7.29663086 C61.44173184 8.13747324 73.13831059 8.19696545 84.875 8.1875 C85.9122522 8.18789276 86.94950439 8.18828552 88.01818848 8.18869019 C102.87238589 8.18196144 117.51678907 7.70972175 132.30566406 6.24365234 C136.90501257 5.82772721 141.51294071 5.59937746 146.125 5.375 C146.93291992 5.33511963 147.74083984 5.29523926 148.57324219 5.25415039 C150.38202759 5.166622 152.19099299 5.08282201 154 5 C154 5.33 154 5.66 154 6 C153.34104736 6.08040527 152.68209473 6.16081055 152.00317383 6.24365234 C148.93935928 6.61870412 145.8759328 6.99684331 142.8125 7.375 C141.77673828 7.50132812 140.74097656 7.62765625 139.67382812 7.7578125 C134.38334386 8.41298083 129.12473501 9.13882176 123.86743164 10.02294922 C117.42658385 11.01823509 111.11117296 11.37369393 104.6015625 11.484375 C102.92276505 11.52053925 102.92276505 11.52053925 101.21005249 11.55743408 C98.86912382 11.60530282 96.52810148 11.6487811 94.18701172 11.68798828 C90.61250654 11.7502175 87.03888009 11.83330378 83.46484375 11.91796875 C81.17710719 11.96218956 78.88934687 12.00520104 76.6015625 12.046875 C75.54103668 12.07279724 74.48051086 12.09871948 73.3878479 12.12542725 C67.7817674 12.20243121 63.39845755 11.62370551 58 10 C54.42448831 9.6127951 50.84703394 9.49099391 47.25390625 9.3671875 C46.24279282 9.32562531 45.23167938 9.28406311 44.18992615 9.24124146 C40.98104292 9.1111669 37.77185088 8.99291122 34.5625 8.875 C32.37822413 8.78854212 30.19397872 8.70131081 28.00976562 8.61328125 C22.67349721 8.3998998 17.33692616 8.19620312 12 8 C12 7.34 12 6.68 12 6 C10.82630859 5.72736328 10.82630859 5.72736328 9.62890625 5.44921875 C8.61699219 5.19785156 7.60507813 4.94648438 6.5625 4.6875 C5.55316406 4.44386719 4.54382813 4.20023437 3.50390625 3.94921875 C2.26447266 3.47935547 2.26447266 3.47935547 1 3 C0.67 2.01 0.34 1.02 0 0 Z " fill="#1EA6C6" transform="translate(118,300)"/>
<path d="M0 0 C1.26884033 -0.00058411 2.53768066 -0.00116821 3.8449707 -0.00177002 C7.31167573 -0.00291452 10.77782364 0.02055109 14.24439955 0.04852581 C17.87185791 0.073584 21.49933001 0.07588493 25.12686157 0.08062744 C31.99039898 0.09304432 38.85368058 0.12584824 45.71710551 0.1660254 C53.53326288 0.21078343 61.34943268 0.23274024 69.16568637 0.25280714 C85.23902513 0.29458221 101.31210684 0.36490891 117.38525391 0.45410156 C117.05525391 1.11410156 116.72525391 1.77410156 116.38525391 2.45410156 C115.38442418 2.45768409 115.38442418 2.45768409 114.36337566 2.461339 C98.13914075 2.52043823 81.9150742 2.59595546 65.69100475 2.68981647 C57.84520497 2.73480952 49.99945093 2.77421598 42.15356445 2.80053711 C35.31622456 2.8234889 28.47902903 2.85685507 21.64180356 2.90280312 C18.02048515 2.92677367 14.39931003 2.9454772 10.77791405 2.95171547 C6.73820936 2.95886924 2.69900442 2.98927036 -1.34057617 3.02172852 C-3.14779144 3.01957588 -3.14779144 3.01957588 -4.99151611 3.01737976 C-6.63846214 3.03618698 -6.63846214 3.03618698 -8.31867981 3.05537415 C-9.27457913 3.05998311 -10.23047846 3.06459208 -11.21534443 3.06934071 C-13.6499445 3.27485121 -13.6499445 3.27485121 -15.40278149 4.74855328 C-17.30495756 7.42540797 -17.31240477 10.24928349 -17.61474609 13.45410156 C-18.27474609 12.79410156 -18.93474609 12.13410156 -19.61474609 11.45410156 C-19.61474609 8.07910156 -19.61474609 8.07910156 -18.61474609 4.45410156 C-13.19327555 -0.78642776 -7.19496168 -0.08665777 0 0 Z " fill="#47B5CF" transform="translate(152.61474609375,132.5458984375)"/>
<path d="M0 0 C-8.84323046 7.20559519 -21.27510012 6.99375981 -32.1875 8.0625 C-32.98671875 8.14177734 -33.7859375 8.22105469 -34.609375 8.30273438 C-50.76334779 9.80689929 -66.90951939 10.2326059 -83.125 10.25 C-84.63007614 10.25350464 -84.63007614 10.25350464 -86.16555786 10.25708008 C-106.87367452 10.27507451 -127.39197967 8.93957838 -148 7 C-148 6.67 -148 6.34 -148 6 C-145.58325176 5.97239755 -143.16683459 5.95287986 -140.75 5.9375 C-139.75613281 5.92493164 -139.75613281 5.92493164 -138.7421875 5.91210938 C-134.72436491 5.89315738 -130.79826686 6.09668398 -126.80004883 6.49780273 C-118.71278471 7.18788101 -110.6362581 7.14455111 -102.52734375 7.1328125 C-100.87016282 7.13348761 -99.21298199 7.13445935 -97.55580139 7.13571167 C-94.10921267 7.1371752 -90.6626501 7.13507524 -87.21606445 7.13037109 C-82.79769059 7.12463401 -78.37937695 7.12798623 -73.96100521 7.13394356 C-70.55100548 7.13755126 -67.14102013 7.13641032 -63.73101997 7.13381577 C-62.10071366 7.13314916 -60.47040603 7.13396561 -58.84010124 7.13629532 C-56.57166934 7.13882962 -54.30333661 7.13497207 -52.03491211 7.12939453 C-50.74540146 7.12859894 -49.45589081 7.12780334 -48.12730408 7.12698364 C-44.96826532 7.14357621 -44.96826532 7.14357621 -42 6 C-40.59175107 5.91978001 -39.18002769 5.89234023 -37.76953125 5.90234375 C-36.56586914 5.90717773 -36.56586914 5.90717773 -35.33789062 5.91210938 C-34.50451172 5.92048828 -33.67113281 5.92886719 -32.8125 5.9375 C-31.5450293 5.94426758 -31.5450293 5.94426758 -30.25195312 5.95117188 C-28.16793845 5.96294597 -26.08396023 5.9808811 -24 6 C-24 5.34 -24 4.68 -24 4 C-20.04 4 -16.08 4 -12 4 C-12 3.34 -12 2.68 -12 2 C-7.82262526 0.40861915 -4.46839215 -0.21278058 0 0 Z " fill="#B7F1F8" transform="translate(288,299)"/>
<path d="M0 0 C0 0.66 0 1.32 0 2 C1.953125 1.93489583 3.90625 1.86979167 5.859375 1.8046875 C8.30155975 2.02751458 9.88636771 2.79085 12 4 C9.33311371 3.85756403 6.66654233 3.71113422 4 3.5625 C3.25621094 3.52318359 2.51242188 3.48386719 1.74609375 3.44335938 C1.00488281 3.40146484 0.26367188 3.35957031 -0.5 3.31640625 C-1.1703125 3.27974854 -1.840625 3.24309082 -2.53125 3.20532227 C-4.533301 3.03881466 -6.52741458 2.77873703 -8.515625 2.49072266 C-14.08143145 1.78196813 -19.64699712 1.83764055 -25.25 1.83203125 C-26.42151611 1.82870285 -27.59303223 1.82537445 -28.80004883 1.82194519 C-31.27441009 1.81689753 -33.74877812 1.8145362 -36.22314453 1.81469727 C-39.96007898 1.81252322 -43.69671191 1.79437834 -47.43359375 1.77539062 C-58.67190738 1.74977051 -69.68594697 1.79311429 -80.80078125 3.5690918 C-84.23467578 4.03160888 -87.53925192 4.06935751 -91 4 C-87.57905758 1.71937172 -86.31812778 1.78074993 -82.3125 1.875 C-80.82169922 1.90207031 -80.82169922 1.90207031 -79.30078125 1.9296875 C-78.54152344 1.95289062 -77.78226563 1.97609375 -77 2 C-77 1.34 -77 0.68 -77 0 C-51.43939122 -3.25686938 -25.57775919 -2.89072556 0 0 Z " fill="#11A5D0" transform="translate(224,91)"/>
<path d="M0 0 C0.33 0 0.66 0 1 0 C1.16494885 10.3734499 0.65043638 20.6510926 0 31 C-0.66 31 -1.32 31 -2 31 C-2 50.8 -2 70.6 -2 91 C-2.33 91 -2.66 91 -3 91 C-3.78467369 85.44427543 -4.15890909 80.06014319 -4.16796875 74.453125 C-4.17211288 73.65202805 -4.17625702 72.85093109 -4.18052673 72.02555847 C-4.19016542 69.43365849 -4.19018701 66.84191511 -4.1875 64.25 C-4.18756042 63.3630545 -4.18762085 62.47610901 -4.18768311 61.56228638 C-4.16772523 40.95067483 -3.25842677 20.38249936 0 0 Z " fill="#BDF5FA" transform="translate(87,141)"/>
<path d="M0 0 C4.03384045 5.37845394 5 9.3036295 5 16 C-37.9 16 -80.8 16 -125 16 C-125 15.67 -125 15.34 -125 15 C-82.43 15 -39.86 15 4 15 C3.67 13.68 3.34 12.36 3 11 C2.34 11 1.68 11 1 11 C0.505 5.555 0.505 5.555 0 0 Z " fill="#D8FEFE" transform="translate(265,117)"/>
<path d="M0 0 C1.16723099 -0.0033284 2.33446198 -0.0066568 3.5370636 -0.01008606 C6.01078906 -0.01514413 8.48452133 -0.01749473 10.95825195 -0.01733398 C14.67997069 -0.01949736 18.40138145 -0.03760081 22.12304688 -0.05664062 C32.80746342 -0.08248576 43.43296738 -0.03786009 54.0703125 1.0546875 C54.83413742 1.13241898 55.59796234 1.21015045 56.38493347 1.29023743 C59.96624786 1.71625269 62.95996708 2.25235763 66.05078125 4.16796875 C61.69065305 4.04965448 57.33074674 3.92540162 52.97094727 3.7956543 C51.4879211 3.75235545 50.00484671 3.71067676 48.52172852 3.6706543 C46.38933786 3.61282917 44.25718883 3.54917043 42.125 3.484375 C40.84197998 3.44771729 39.55895996 3.41105957 38.23706055 3.37329102 C35.05078125 3.16796875 35.05078125 3.16796875 32.05078125 2.16796875 C30.40919675 2.08057977 28.76426503 2.05030254 27.12036133 2.05444336 C25.61914482 2.05455666 25.61914482 2.05455666 24.08760071 2.05467224 C23.0093956 2.05983353 21.93119049 2.06499481 20.8203125 2.0703125 C19.7147551 2.07172745 18.60919769 2.0731424 17.47013855 2.07460022 C13.93449208 2.08020361 10.39890863 2.09275671 6.86328125 2.10546875 C4.46809987 2.11048331 2.0729175 2.11504629 -0.32226562 2.11914062 C-6.19793822 2.13017414 -12.07357398 2.14691559 -17.94921875 2.16796875 C-17.94921875 1.83796875 -17.94921875 1.50796875 -17.94921875 1.16796875 C-11.99294472 -0.12603162 -6.06304957 0.00606489 0 0 Z " fill="#C8F6FA" transform="translate(167.94921875,91.83203125)"/>
<path d="M0 0 C0.33 0 0.66 0 1 0 C1 17.16 1 34.32 1 52 C0.34 52 -0.32 52 -1 52 C-1.1701108 47.12966224 -1.33034751 42.25912558 -1.48217773 37.38818359 C-1.53492753 35.7377082 -1.59018666 34.08731072 -1.64819336 32.43701172 C-2.60023082 5.20046165 -2.60023082 5.20046165 0 0 Z " fill="#16A5C5" transform="translate(82,172)"/>
<path d="M0 0 C2.64 0 5.28 0 8 0 C8 0.66 8 1.32 8 2 C9.0725 2.0825 10.145 2.165 11.25 2.25 C15.27850766 3.05570153 16.56205656 3.78191466 19 7 C19 7.66 19 8.32 19 9 C19.99 9.33 20.98 9.66 22 10 C27.56087471 16.90497238 31.81355632 25.41365345 34 34 C33.625 36.8828125 33.625 36.8828125 33 39 C32.67 39 32.34 39 32 39 C31.77957031 37.78376953 31.77957031 37.78376953 31.5546875 36.54296875 C29.15609985 24.70166534 24.78975616 14.54292688 15 7 C12.09002296 5.34491968 9.15608918 4.1043406 6 3 C4.824375 2.5875 3.64875 2.175 2.4375 1.75 C1.633125 1.5025 0.82875 1.255 0 1 C0 0.67 0 0.34 0 0 Z " fill="#26A6BE" transform="translate(238,95)"/>
<path d="M0 0 C0.66 0.33 1.32 0.66 2 1 C1.34 2.32 0.68 3.64 0 5 C-0.99 5 -1.98 5 -3 5 C-2.88610125 6.79240663 -2.75852313 8.58394835 -2.625 10.375 C-2.55539062 11.37273437 -2.48578125 12.37046875 -2.4140625 13.3984375 C-2.23636036 16.15508879 -2.23636036 16.15508879 0 18 C0.51366646 21.33663686 0.82852922 24.67047549 1.14453125 28.03125 C1.68329108 31.18526786 1.68329108 31.18526786 4.3984375 32.3984375 C7.03336191 33.00771432 9.30561606 33.1539648 12 33 C10.9375 34.5625 10.9375 34.5625 9 36 C2.91216187 35.8912886 2.91216187 35.8912886 0.29296875 33.33203125 C-1.38387978 30.30762469 -1.29953701 28.18580176 -1.1875 24.75 C-1.16042969 23.67234375 -1.13335937 22.5946875 -1.10546875 21.484375 C-1.07066406 20.66453125 -1.03585937 19.8446875 -1 19 C-1.66 19 -2.32 19 -3 19 C-5.82317327 14.76524009 -5.79429252 10.97396771 -5 6 C-3.58174937 3.48470533 -2.12285307 2.01671041 0 0 Z " fill="#23A4BD" transform="translate(260,202)"/>
<path d="M0 0 C0.33 0 0.66 0 1 0 C1.31832855 10.29262315 1.03187399 19.65192881 -1.27734375 29.7265625 C-1.88963703 32.50008558 -2.27352009 35.11372917 -2.5 37.9375 C-2.9202453 42.36688548 -4.1233353 45.95795296 -6 50 C-7.485 50.495 -7.485 50.495 -9 51 C-8.80736572 50.40574219 -8.61473145 49.81148438 -8.41625977 49.19921875 C-6.4270081 42.85335175 -5.03435417 36.5547691 -3.9375 30 C-3.76831055 29.0112085 -3.59912109 28.02241699 -3.42480469 27.00366211 C-1.92925217 18.03683062 -0.85847397 9.04786379 0 0 Z " fill="#2EACC3" transform="translate(316,227)"/>
<path d="M0 0 C17.49 0 34.98 0 53 0 C53 0.33 53 0.66 53 1 C51.75089844 1.01981934 50.50179687 1.03963867 49.21484375 1.06005859 C44.50307765 1.13713463 39.7915803 1.2256784 35.08007812 1.31738281 C33.05539319 1.35525739 31.03065041 1.39017573 29.00585938 1.421875 C18.02157225 1.59588351 7.24846456 1.94847321 -3.625 3.58447266 C-7.1169631 4.0144004 -10.48534123 4.06892587 -14 4 C-10.57905758 1.71937172 -9.31812778 1.78074993 -5.3125 1.875 C-3.82169922 1.90207031 -3.82169922 1.90207031 -2.30078125 1.9296875 C-1.54152344 1.95289062 -0.78226563 1.97609375 0 2 C0 1.34 0 0.68 0 0 Z " fill="#3CB3CE" transform="translate(147,91)"/>
<path d="M0 0 C1.50779169 2.00288747 3.0066431 4.00921576 4.47265625 6.04296875 C9.00467842 12.15618784 14.21511677 17.07644747 20 22 C18.68 22.33 17.36 22.66 16 23 C16 22.34 16 21.68 16 21 C15.01 21 14.02 21 13 21 C13 20.34 13 19.68 13 19 C11.35 19.33 9.7 19.66 8 20 C7.896875 18.906875 7.79375 17.81375 7.6875 16.6875 C7.00272798 13.01463192 6.72080696 12.24762314 4 10 C4 9.34 4 8.68 4 8 C3.34 8 2.68 8 2 8 C2 7.34 2 6.68 2 6 C1.34 6 0.68 6 0 6 C-0.38218767 4.34385343 -0.71395102 2.67542976 -1 1 C-0.67 0.67 -0.34 0.34 0 0 Z " fill="#21AAC5" transform="translate(92,274)"/>
<path d="M0 0 C0.33 0 0.66 0 1 0 C1.07516846 0.83023682 1.15033691 1.66047363 1.2277832 2.51586914 C3.04435048 23.91846702 3.04435048 23.91846702 7 45 C3.71407878 42.80938585 3.33409312 41.77417069 2.41113281 38.07373047 C1.65499545 34.25981673 1.23997279 30.43106173 0.875 26.5625 C0.79008301 25.69592773 0.70516602 24.82935547 0.61767578 23.93652344 C-0.10991009 15.94039864 -0.20172453 8.02415371 0 0 Z " fill="#2EAAC7" transform="translate(83,224)"/>
<path d="M0 0 C2 2 2 2 2.265625 4.0234375 C2.26046875 4.79945313 2.2553125 5.57546875 2.25 6.375 C2.25515625 7.14585937 2.2603125 7.91671875 2.265625 8.7109375 C1.97688045 11.1992361 1.24139229 12.84234198 0 15 C-0.66 15 -1.32 15 -2 15 C-1.96519531 15.84304687 -1.93039062 16.68609375 -1.89453125 17.5546875 C-1.85392578 19.19824219 -1.85392578 19.19824219 -1.8125 20.875 C-1.76029297 22.51082031 -1.76029297 22.51082031 -1.70703125 24.1796875 C-1.80371094 25.11039063 -1.90039062 26.04109375 -2 27 C-2.99 27.66 -3.98 28.32 -5 29 C-5 22.4 -5 15.8 -5 9 C-4.01 9.495 -4.01 9.495 -3 10 C-3 10.99 -3 11.98 -3 13 C-2.34 12.67 -1.68 12.34 -1 12 C-0.53101037 9.1840151 -0.53101037 9.1840151 -0.375 5.9375 C-0.26285156 4.28041016 -0.26285156 4.28041016 -0.1484375 2.58984375 C-0.09945313 1.73519531 -0.05046875 0.88054687 0 0 Z " fill="#21A5BF" transform="translate(277,206)"/>
<path d="M0 0 C1.88327072 3.22519642 2.32540577 5.85474978 2.5625 9.5625 C2.76883806 12.66599292 3.01136396 15.03409187 4 18 C4.14403348 19.33363703 4.24590423 20.67218046 4.31640625 22.01171875 C4.35830078 22.76904297 4.40019531 23.52636719 4.44335938 24.30664062 C4.48267578 25.09232422 4.52199219 25.87800781 4.5625 26.6875 C4.60568359 27.48478516 4.64886719 28.28207031 4.69335938 29.10351562 C4.79927368 31.06881447 4.90012551 33.03438496 5 35 C2.41159624 31.11739436 2.06721569 27.6777004 1.375 23.125 C1.17716919 21.85692505 1.17716919 21.85692505 0.9753418 20.56323242 C-0.03805196 13.65420598 -0.33858946 6.98497508 0 0 Z " fill="#CAF8FC" transform="translate(85,232)"/>
<path d="M0 0 C1.53498355 4.03721702 0.61972147 7.88472096 -0.125 12 C-0.3259729 13.12643921 -0.3259729 13.12643921 -0.53100586 14.27563477 C-1.90812834 21.41855361 -3.72664908 29.72664908 -9 35 C-8.05137607 30.09877637 -6.97094369 25.74980821 -4.9375 21.1875 C-2.88284908 16.3427696 -2.45284456 11.89446819 -2.2734375 6.6640625 C-1.99682612 3.96907733 -1.36936521 2.31148847 0 0 Z " fill="#CFF9FD" transform="translate(313,247)"/>
<path d="M0 0 C7.92 0 15.84 0 24 0 C24 0.66 24 1.32 24 2 C25.953125 1.93489583 27.90625 1.86979167 29.859375 1.8046875 C32.30155975 2.02751458 33.88636771 2.79085 36 4 C23.94517751 3.41346574 11.99208527 2.35585596 0 1 C0 0.67 0 0.34 0 0 Z " fill="#22A8C4" transform="translate(200,91)"/>
<path d="M0 0 C0.556875 0.268125 1.11375 0.53625 1.6875 0.8125 C0.4809375 1.3384375 0.4809375 1.3384375 -0.75 1.875 C-3.62835761 3.65296636 -3.62835761 3.65296636 -4.3125 7.1875 C-4.3125 11.12812678 -3.65671135 12.71814102 -1.3125 15.8125 C-4.2825 15.3175 -4.2825 15.3175 -7.3125 14.8125 C-6.9825 15.8025 -6.6525 16.7925 -6.3125 17.8125 C-6.9725 17.8125 -7.6325 17.8125 -8.3125 17.8125 C-8.291875 17.02875 -8.27125 16.245 -8.25 15.4375 C-8.12565937 12.83135039 -8.12565937 12.83135039 -9.3125 10.8125 C-8.6525 10.8125 -7.9925 10.8125 -7.3125 10.8125 C-7.415625 9.925625 -7.51875 9.03875 -7.625 8.125 C-7.3125 4.8125 -7.3125 4.8125 -5.0625 1.875 C-2.3125 -0.1875 -2.3125 -0.1875 0 0 Z " fill="#DEFAFB" transform="translate(138.3125,133.1875)"/>
<path d="M0 0 C5.50789383 5.04890268 9.19272057 10.60658413 11 18 C10.625 20.375 10.625 20.375 10 22 C7.8480563 18.77208445 7.79913557 17.71599191 8 14 C7.34 14 6.68 14 6 14 C5.87625 13.071875 5.87625 13.071875 5.75 12.125 C5.37875 11.073125 5.37875 11.073125 5 10 C4.34 9.7525 3.68 9.505 3 9.25 C1 8 1 8 0.515625 6.1015625 C0.2738394 4.07483028 0.1314109 2.03686891 0 0 Z " fill="#DBF7FC" transform="translate(305,166)"/>
<path d="M0 0 C0.66 0.556875 1.32 1.11375 2 1.6875 C5.96716683 3.72775723 9.72499285 4.05339357 14.109375 4.34375 C14.73328125 4.4571875 15.3571875 4.570625 16 4.6875 C16.33 5.3475 16.66 6.0075 17 6.6875 C8.65855821 7.25623467 -0.05124898 5.43454053 -7 0.6875 C-7 0.3575 -7 0.0275 -7 -0.3125 C-2.54873646 -1.6726083 -2.54873646 -1.6726083 0 0 Z " fill="#C8F7FB" transform="translate(123,298.3125)"/>
<path d="M0 0 C0.33 0 0.66 0 1 0 C1 10 1 10 0 12 C-0.99 12 -1.98 12 -3 12 C-3 13.32 -3 14.64 -3 16 C-3.66 16 -4.32 16 -5 16 C-5.33 16.66 -5.66 17.32 -6 18 C-5.61330541 11.03949747 -3.36561591 6.0605925 0 0 Z " fill="#DFF9F9" transform="translate(94,122)"/>
<path d="M0 0 C1 2 1 2 1 6 C0.33613281 6.12117188 -0.32773437 6.24234375 -1.01171875 6.3671875 C-6.43183605 7.35560098 -6.43183605 7.35560098 -11.625 9.125 C-15.13385258 10.41773516 -18.27484528 10.12627643 -22 10 C-22 9.67 -22 9.34 -22 9 C-20.081875 8.6596875 -20.081875 8.6596875 -18.125 8.3125 C-11.47325693 6.84953752 -5.63842767 3.75895178 0 0 Z " fill="#27ABC5" transform="translate(294,295)"/>
<path d="M0 0 C0.66 0 1.32 0 2 0 C2.25166992 6.29174812 1.87021796 11.25956408 -1 17 C-4.795878 18.5183512 -8.9877022 18.06687163 -13 18 C-13 17.34 -13 16.68 -13 16 C-11.948125 16.0825 -10.89625 16.165 -9.8125 16.25 C-6.06259548 16.21971264 -6.06259548 16.21971264 -3.125 14.75 C0.27008967 10.35635454 -0.09357878 5.41055486 0 0 Z " fill="#C5F7FC" transform="translate(275,221)"/>
<path d="M0 0 C-0.020625 0.804375 -0.04125 1.60875 -0.0625 2.4375 C-0.29633621 4.93354885 -0.29633621 4.93354885 1 6 C1.07205511 7.68608966 1.08386068 9.37500659 1.0625 11.0625 C1.05347656 11.98160156 1.04445313 12.90070313 1.03515625 13.84765625 C1.02355469 14.55792969 1.01195312 15.26820313 1 16 C0.34 16 -0.32 16 -1 16 C-1 16.99 -1 17.98 -1 19 C-1.66 19 -2.32 19 -3 19 C-2.84144531 18.43023437 -2.68289063 17.86046875 -2.51953125 17.2734375 C-1.53006818 12.94360661 -0.97500919 8.19768771 -2.89453125 4.08203125 C-4.08367774 2.25669049 -4.08367774 2.25669049 -6 0 C-3.50907189 -1.24546405 -2.58919267 -0.7767578 0 0 Z " fill="#D1F6FB" transform="translate(280,202)"/>
<path d="M0 0 C0 0.66 0 1.32 0 2 C-0.65226562 1.88140625 -1.30453125 1.7628125 -1.9765625 1.640625 C-6.63305228 0.9538271 -9.18949362 0.59474681 -13.5 2.75 C-16.79712744 5.7174147 -18.1976064 7.84233172 -18.625 12.1875 C-18.74875 13.445625 -18.8725 14.70375 -19 16 C-19.33 16 -19.66 16 -20 16 C-20.0272415 14.58344207 -20.04650467 13.16672955 -20.0625 11.75 C-20.07410156 10.96109375 -20.08570313 10.1721875 -20.09765625 9.359375 C-20.00385306 7.09308998 -19.63241063 5.1711105 -19 3 C-18.34 3 -17.68 3 -17 3 C-17 2.34 -17 1.68 -17 1 C-12.21302585 -1.55305288 -4.98229113 -2.49114557 0 0 Z " fill="#CFF9FC" transform="translate(274,200)"/>
<path d="M0 0 C2.64 0 5.28 0 8 0 C8 0.66 8 1.32 8 2 C9.0725 2.0825 10.145 2.165 11.25 2.25 C15.27850766 3.05570153 16.56205656 3.78191466 19 7 C19 7.66 19 8.32 19 9 C19.66 9 20.32 9 21 9 C20.67 9.99 20.34 10.98 20 12 C19.113125 11.113125 18.22625 10.22625 17.3125 9.3125 C12.29911075 4.95168001 6.20760859 3.10965344 0 1 C0 0.67 0 0.34 0 0 Z " fill="#31ACC5" transform="translate(238,95)"/>
<path d="M0 0 C-5.38938056 4.39134713 -9.94930653 5.29575888 -16.8125 5.125 C-17.85180664 5.11146484 -17.85180664 5.11146484 -18.91210938 5.09765625 C-20.60822395 5.07426157 -22.30415871 5.03839641 -24 5 C-24 4.67 -24 4.34 -24 4 C-20.04 4 -16.08 4 -12 4 C-12 3.34 -12 2.68 -12 2 C-7.82262526 0.40861915 -4.46839215 -0.21278058 0 0 Z " fill="#D3FAFD" transform="translate(288,299)"/>
<path d="M0 0 C3.39417765 3.12621626 5.6062718 5.56541027 7 10 C6.34 10 5.68 10 5 10 C4.67 9.01 4.34 8.02 4 7 C2.68 7.99 1.36 8.98 0 10 C0 8.35 0 6.7 0 5 C-0.66 5 -1.32 5 -2 5 C-2 4.34 -2 3.68 -2 3 C-1.34 3 -0.68 3 0 3 C0 2.01 0 1.02 0 0 Z " fill="#F3FDF4" transform="translate(258,107)"/>
<path d="M0 0 C0.33 0 0.66 0 1 0 C1 1.98 1 3.96 1 6 C0.360625 6.226875 -0.27875 6.45375 -0.9375 6.6875 C-1.618125 7.120625 -2.29875 7.55375 -3 8 C-3.144375 8.78375 -3.28875 9.5675 -3.4375 10.375 C-4.20792208 13.97030304 -6.05721138 14.9626848 -9 17 C-9.66 16.67 -10.32 16.34 -11 16 C-10.54109375 15.43152344 -10.0821875 14.86304688 -9.609375 14.27734375 C-5.95947938 9.68430283 -2.75529933 5.17996274 0 0 Z " fill="#2BAAC0" transform="translate(306,278)"/>
<path d="M0 0 C-0.99902344 0.19335938 -1.99804688 0.38671875 -3.02734375 0.5859375 C-4.31769531 0.84632812 -5.60804688 1.10671875 -6.9375 1.375 C-8.22527344 1.63023438 -9.51304687 1.88546875 -10.83984375 2.1484375 C-11.88269531 2.42945312 -12.92554688 2.71046875 -14 3 C-14.33 3.66 -14.66 4.32 -15 5 C-17.97 4.67 -20.94 4.34 -24 4 C-19.99405298 1.99702649 -16.34595456 1.11162027 -12 0.3125 C-11.2884375 0.17005859 -10.576875 0.02761719 -9.84375 -0.11914062 C-6.31357087 -0.78104921 -3.41163242 -1.32378445 0 0 Z " fill="#C9F7FB" transform="translate(144,95)"/>
<path d="M0 0 C0.66 0 1.32 0 2 0 C2.66 0.99 3.32 1.98 4 3 C7.04907647 4.99767079 9.39697197 5.20016822 13 5 C11.9375 6.5625 11.9375 6.5625 10 8 C6.1560133 7.93135738 3.87848566 7.85014741 1.0625 5.125 C0 3 0 3 0 0 Z " fill="#32ADC2" transform="translate(259,230)"/>
<path d="M0 0 C3.80234283 5.06979045 5.38526352 9.6431519 5 16 C3.02 16 1.04 16 -1 16 C-1 15.67 -1 15.34 -1 15 C0.65 15 2.3 15 4 15 C3.67 13.68 3.34 12.36 3 11 C2.34 11 1.68 11 1 11 C0.67 7.37 0.34 3.74 0 0 Z " fill="#C8F6FB" transform="translate(265,117)"/>
<path d="M0 0 C0 2 0 2 -1.125 3.5 C-3.58220406 5.46576325 -5.99690136 6.09907041 -9 7 C-10.67163195 7.65411685 -12.34015202 8.31653318 -14 9 C-10.44113418 5.11760093 -5.62095916 0 0 0 Z " fill="#D3F9FB" transform="translate(120,99)"/>
<path d="M0 0 C0.62841797 0.84304688 0.62841797 0.84304688 1.26953125 1.703125 C3.05297566 4.07031532 4.86551961 6.41236478 6.6875 8.75 C7.62142578 9.94882812 7.62142578 9.94882812 8.57421875 11.171875 C9.04472656 11.77515625 9.51523438 12.3784375 10 13 C7 13 7 13 5.3125 11.625 C4 10 4 10 4 8 C3.34 8 2.68 8 2 8 C2 7.34 2 6.68 2 6 C1.34 6 0.68 6 0 6 C-0.38218767 4.34385343 -0.71395102 2.67542976 -1 1 C-0.67 0.67 -0.34 0.34 0 0 Z " fill="#2CACC1" transform="translate(92,274)"/>
<path d="M0 0 C0.66 0.33 1.32 0.66 2 1 C1.04737966 2.48285242 0.08771595 3.96118201 -0.875 5.4375 C-1.40867187 6.26121094 -1.94234375 7.08492188 -2.4921875 7.93359375 C-4 10 -4 10 -6 11 C-5.43518386 7.04628701 -4.28003407 4.28324906 -2 1 C-1.34 0.67 -0.68 0.34 0 0 Z " fill="#CDF6FA" transform="translate(302,282)"/>
<path d="M0 0 C4.02788822 0.46475633 6.09776733 1.88253696 9.25 4.375 C9.58 5.035 9.91 5.695 10.25 6.375 C9.26 6.375 8.27 6.375 7.25 6.375 C7.25 5.715 7.25 5.055 7.25 4.375 C1.31 3.385 1.31 3.385 -4.75 2.375 C-2.75 0.375 -2.75 0.375 0 0 Z " fill="#33ABBD" transform="translate(266.75,199.625)"/>
<path d="M0 0 C1.4370809 -0.05422947 2.87475462 -0.09289723 4.3125 -0.125 C5.11300781 -0.14820313 5.91351563 -0.17140625 6.73828125 -0.1953125 C9 0 9 0 12 2 C10.1128125 1.9071875 10.1128125 1.9071875 8.1875 1.8125 C4.86656162 1.7399651 4.86656162 1.7399651 2.125 3.5 C1.75375 3.995 1.3825 4.49 1 5 C0.34 5 -0.32 5 -1 5 C-0.67 3.35 -0.34 1.7 0 0 Z " fill="#E3FCFA" transform="translate(273,151)"/>
<path d="M0 0 C-0.6875 1.9375 -0.6875 1.9375 -2 4 C-4.5 4.875 -4.5 4.875 -7 5 C-7.66 4.34 -8.32 3.68 -9 3 C-5.55930376 0.70620251 -4.27709699 0 0 0 Z " fill="#EFFBF8" transform="translate(112,107)"/>
<path d="M0 0 C3.7602985 0.58107632 6.53035032 1.65199496 9.8125 3.5625 C10.60269531 4.01753906 11.39289063 4.47257813 12.20703125 4.94140625 C12.79871094 5.29074219 13.39039063 5.64007813 14 6 C10.69578108 7.06751688 9.96827813 6.98942604 6.4375 5.8125 C3.20704423 4.10916878 1.80924949 3.08636678 0 0 Z " fill="#CFF9FD" transform="translate(285,153)"/>
<path d="M0 0 C0.99 0 1.98 0 3 0 C2.75 2.375 2.75 2.375 2 5 C-0.0625 6.3125 -0.0625 6.3125 -2 7 C-2.125 4.625 -2.125 4.625 -2 2 C-1.34 1.34 -0.68 0.68 0 0 Z " fill="#1BABCD" transform="translate(102,105)"/>
<path d="M0 0 C0.66 0 1.32 0 2 0 C2.474375 1.134375 2.94875 2.26875 3.4375 3.4375 C4.63622083 6.75740166 4.63622083 6.75740166 6 8 C6.04063832 9.66617115 6.042721 11.33388095 6 13 C2.84297684 9.09130466 0 5.1385061 0 0 Z " fill="#D3F9FE" transform="translate(90,267)"/>
<path d="M0 0 C0.99 0.33 1.98 0.66 3 1 C2.360625 1.66 1.72125 2.32 1.0625 3 C-1.58912502 6.85690912 -1.68667121 9.37840033 -2 14 C-2.33 14 -2.66 14 -3 14 C-3.0272415 12.58344207 -3.04650467 11.16672955 -3.0625 9.75 C-3.07410156 8.96109375 -3.08570313 8.1721875 -3.09765625 7.359375 C-3.00251462 5.06075329 -2.76316406 3.16949782 -2 1 C-1.34 0.67 -0.68 0.34 0 0 Z " fill="#B2EDF4" transform="translate(257,202)"/>
<path d="M0 0 C0 0.99 0 1.98 0 3 C-0.66 3.66 -1.32 4.32 -2 5 C-2.40047444 7.32275177 -2.7397104 9.65739357 -3 12 C-3.66 11.34 -4.32 10.68 -5 10 C-4.77181974 3.72504278 -4.77181974 3.72504278 -1.9375 1.0625 C-0.9784375 0.5365625 -0.9784375 0.5365625 0 0 Z " fill="#3DADBE" transform="translate(138,134)"/>
<path d="M0 0 C0 3.36403475 -0.61880053 4.40092917 -2.375 7.1875 C-2.81585938 7.90292969 -3.25671875 8.61835937 -3.7109375 9.35546875 C-4.13632813 9.89816406 -4.56171875 10.44085938 -5 11 C-5.66 11 -6.32 11 -7 11 C-5.5140084 6.40693504 -3.14985318 3.56430755 0 0 Z " fill="#C8F8FB" transform="translate(102,111)"/>
<path d="M0 0 C2.86724686 0.57344937 3.8614515 0.8614515 6 3 C8.06874034 3.6425235 8.06874034 3.6425235 10 4 C10 4.99 10 5.98 10 7 C5.56541027 5.6062718 3.12621626 3.39417765 0 0 Z " fill="#CCF8FC" transform="translate(106,291)"/>
<path d="M0 0 C3.25511789 0.56122722 4.99840071 1.33120095 7 4 C7.6875 6.6875 7.6875 6.6875 8 9 C1.42857143 3.85714286 1.42857143 3.85714286 0 0 Z " fill="#D0F9FD" transform="translate(96,280)"/>
<path d="M0 0 C1.32 0 2.64 0 4 0 C4.33 0.66 4.66 1.32 5 2 C5.99 2.33 6.98 2.66 8 3 C8.33 3.99 8.66 4.98 9 6 C4.75177626 5.52797514 2.80010291 3.03344482 0 0 Z " fill="#21A7C2" transform="translate(295,156)"/>
<path d="M0 0 C2.51699845 2.51699845 3.10964078 4.57554146 4 8 C3.625 10.375 3.625 10.375 3 12 C0.97649676 8.96474514 0.67875982 7.80573798 0.375 4.3125 C0.30023438 3.50425781 0.22546875 2.69601563 0.1484375 1.86328125 C0.09945313 1.24839844 0.05046875 0.63351563 0 0 Z " fill="#B9EFF6" transform="translate(312,176)"/>
<path d="M0 0 C3.3 0 6.6 0 10 0 C7.41212273 2.58787727 5.57992139 2.62709152 2 3 C1.34 2.67 0.68 2.34 0 2 C0 1.34 0 0.68 0 0 Z " fill="#0BAADD" transform="translate(272,146)"/>
<path d="M0 0 C0.66 0.33 1.32 0.66 2 1 C0.02 3.97 -1.96 6.94 -4 10 C-5 7 -5 7 -3.6875 3.875 C-2 1 -2 1 0 0 Z " fill="#30A7C0" transform="translate(99,112)"/>
<path d="M0 0 C3.39417765 3.12621626 5.6062718 5.56541027 7 10 C6.34 10 5.68 10 5 10 C4.731875 9.030625 4.46375 8.06125 4.1875 7.0625 C3.795625 6.051875 3.40375 5.04125 3 4 C2.01 3.67 1.02 3.34 0 3 C0 2.01 0 1.02 0 0 Z " fill="#C8F7FC" transform="translate(258,107)"/>
<path d="M0 0 C0.33 0 0.66 0 1 0 C1.33 3.63 1.66 7.26 2 11 C-1 8 -1 8 -1.07421875 5.95703125 C-0.71614583 3.97135417 -0.35807292 1.98567708 0 0 Z " fill="#E4FEFE" transform="translate(253,209)"/>
<path d="M0 0 C2.31 0 4.62 0 7 0 C7 1.32 7 2.64 7 4 C5.68 4 4.36 4 3 4 C3 3.34 3 2.68 3 2 C2.01 1.34 1.02 0.68 0 0 Z " fill="#0FA8D4" transform="translate(262,202)"/>
<path d="M0 0 C0.33 0 0.66 0 1 0 C1 2.64 1 5.28 1 8 C0.34 8 -0.32 8 -1 8 C-1.33 8.66 -1.66 9.32 -2 10 C-1.125 2.25 -1.125 2.25 0 0 Z " fill="#BFF3F9" transform="translate(90,130)"/>
<path d="M0 0 C0.99 0.33 1.98 0.66 3 1 C0.69 2.65 -1.62 4.3 -4 6 C-4 5.01 -4 4.02 -4 3 C-2.1875 1.25 -2.1875 1.25 0 0 Z " fill="#C4F5F9" transform="translate(293,293)"/>
</svg>
