<?xml version="1.0" encoding="UTF-8"?>
<svg version="1.1" xmlns="http://www.w3.org/2000/svg" width="440" height="109">
<path d="M0 0 C4.46825083 0.85012294 5.68366074 2.75872398 8.375 6.4375 C9.25680753 7.62444519 10.13968169 8.81059846 11.0234375 9.99609375 C11.4987793 10.6391748 11.97412109 11.28225586 12.46386719 11.94482422 C15.25156807 15.67445963 18.13292987 19.33128325 21 23 C22.19684781 24.54148561 23.3934652 26.08315016 24.58984375 27.625 C26.6896533 30.32685285 28.80423813 33.01512214 30.94140625 35.6875 C39.04929797 45.88817785 45.41977421 55.53302401 44 69 C40.99066839 82.92832535 30.58060956 90.88619699 19.25 98.4375 C18.23550781 99.13037109 17.22101562 99.82324219 16.17578125 100.53710938 C13.46424755 102.38102355 10.74825623 104.21130531 8 106 C7.15018555 106.586604 6.30037109 107.17320801 5.42480469 107.77758789 C3 109 3 109 1.01806641 108.89257812 C-3.87096027 106.73019226 -8.19833889 103.4653812 -12.625 100.5 C-13.66785156 99.81679687 -14.71070313 99.13359375 -15.78515625 98.4296875 C-36.92324684 84.33762711 -36.92324684 84.33762711 -40 72 C-41.64665526 59.46499639 -38.99210848 50.47808934 -31.28125 40.3828125 C-28.74457364 37.14909145 -26.13035231 33.98350898 -23.50195312 30.82421875 C-15.2966267 20.85832163 -7.72475115 10.3394865 0 0 Z M1 15 C-13.11616108 29.42258969 -13.11616108 29.42258969 -21.3125 46.75 C-20.68541907 53.27164164 -15.46635637 57.86847387 -11.125 62.4375 C-10.05896953 63.57465317 -8.99385603 64.7126667 -7.9296875 65.8515625 C-7.42405273 66.39200195 -6.91841797 66.93244141 -6.39746094 67.48925781 C-3.84174011 70.25215098 -1.41557134 73.11473424 1 76 C6.96977842 71.17337064 11.99616349 65.81289267 17 60 C18.05380859 58.83017578 18.05380859 58.83017578 19.12890625 57.63671875 C22.13548664 54.11993078 23.83762864 51.67113496 24.9375 47.125 C24.30751881 41.0748033 19.70014871 36.53177823 16 32 C14.94262155 30.67819316 13.88670843 29.3552132 12.83203125 28.03125 C11.21172598 25.99862197 9.58827939 23.96926361 7.95019531 21.95092773 C4.10225766 17.20451532 4.10225766 17.20451532 3 15 C2.34 15 1.68 15 1 15 Z M32 55 C31.25556641 55.96099609 31.25556641 55.96099609 30.49609375 56.94140625 C26.79127981 61.65854126 23.04332941 66.10284401 18.734375 70.2734375 C11.4402142 77.04447189 11.4402142 77.04447189 7.8046875 85.69921875 C7.82789063 86.68535156 7.85109375 87.67148438 7.875 88.6875 C7.89304688 89.68136719 7.91109375 90.67523438 7.9296875 91.69921875 C7.95289063 92.45847656 7.97609375 93.21773437 8 94 C24.40980224 84.50539447 24.40980224 84.50539447 34.56640625 69.15625 C35.32651212 65.37626407 34.97447967 61.71474583 34 58 C33.34 57.01 32.68 56.02 32 55 Z M-30 56 C-31.94658589 61.83975768 -32.02507879 68.5657918 -29.5 74.25 C-24.16738285 83.31544915 -13.79200174 88.73911429 -5 94 C-4.67 94 -4.34 94 -4 94 C-3.91795172 92.60517921 -3.86033796 91.20891272 -3.8125 89.8125 C-3.77769531 89.03519531 -3.74289063 88.25789063 -3.70703125 87.45703125 C-4.36574162 81.93264694 -8.38589055 78.32571287 -12.0625 74.4375 C-16.96404455 69.21512408 -21.52601751 63.79153015 -26.00390625 58.203125 C-26.66261719 57.47609375 -27.32132813 56.7490625 -28 56 C-28.66 56 -29.32 56 -30 56 Z " fill="#0063FF" transform="translate(40,0)"/>
<path d="M0 0 C19 0 19 0 25 3 C27.89077271 5.89077271 27.86742637 7.95650442 28 12 C26.92297097 14.60914076 25.59071043 16.63803603 24 19 C24.61875 19.226875 25.2375 19.45375 25.875 19.6875 C28.74939757 21.4628632 29.20186198 22.73488994 30 26 C29.86367479 29.88526852 29.61362927 32.18913275 27.25 35.3125 C21.6610188 39.5042359 16.4034207 39.24745245 9.6875 39.125 C4.8921875 39.063125 4.8921875 39.063125 0 39 C0 26.13 0 13.26 0 0 Z M8 7 C8 9.97 8 12.94 8 16 C13.63989384 16.52711519 13.63989384 16.52711519 18.5625 14.25 C20.22199513 12.13654123 20.22199513 12.13654123 19.875 9.8125 C19.13800752 7.81439869 19.13800752 7.81439869 17 7 C13.99525503 6.86440682 11.00931153 6.95700984 8 7 Z M8 22 C8 25.3 8 28.6 8 32 C9.79133978 32.05391993 11.58313899 32.09275571 13.375 32.125 C14.37273437 32.14820313 15.37046875 32.17140625 16.3984375 32.1953125 C19.16262173 32.27216848 19.16262173 32.27216848 21 30 C21.41666667 27 21.41666667 27 21 24 C17.68629 21.79086 16.6553979 21.77518447 12.8125 21.875 C11.224375 21.91625 9.63625 21.9575 8 22 Z " fill="#020202" transform="translate(319,37)"/>
<path d="M0 0 C2.5 1 2.5 1 4 2 C4 2.66 4 3.32 4 4 C4.825 3.34 5.65 2.68 6.5 2 C10.4781731 -0.63330607 13.29401891 -0.5975849 18 0 C20.8100346 1.79363911 22.50940468 3.01880935 24 6 C24.08449628 7.7404417 24.10723024 9.48409722 24.09765625 11.2265625 C24.09443359 12.2578125 24.09121094 13.2890625 24.08789062 14.3515625 C24.07532227 15.97191406 24.07532227 15.97191406 24.0625 17.625 C24.05798828 18.71296875 24.05347656 19.8009375 24.04882812 20.921875 C24.03701776 23.61463789 24.02054778 26.30729188 24 29 C21.36 29 18.72 29 16 29 C15.67 22.4 15.34 15.8 15 9 C13.68 8.34 12.36 7.68 11 7 C7.75150023 8.72226496 7.75150023 8.72226496 7 12 C6.85596652 13.33363703 6.75409577 14.67218046 6.68359375 16.01171875 C6.64169922 16.76904297 6.59980469 17.52636719 6.55664062 18.30664062 C6.51732422 19.09232422 6.47800781 19.87800781 6.4375 20.6875 C6.39431641 21.48478516 6.35113281 22.28207031 6.30664062 23.10351562 C6.20072632 25.06881447 6.09987449 27.03438496 6 29 C3.36 29 0.72 29 -2 29 C-2.33 22.07 -2.66 15.14 -3 8 C-4.32 7.67 -5.64 7.34 -7 7 C-9.20900768 8.49077412 -9.89040876 9.47159818 -10.43237305 12.0847168 C-10.45855713 12.86500244 -10.48474121 13.64528809 -10.51171875 14.44921875 C-10.54716797 15.29677734 -10.58261719 16.14433594 -10.61914062 17.01757812 C-10.65297852 18.33918945 -10.65297852 18.33918945 -10.6875 19.6875 C-10.73874023 21.02651367 -10.73874023 21.02651367 -10.79101562 22.39257812 C-10.87345648 24.59492671 -10.94261551 26.79687938 -11 29 C-13.64 29 -16.28 29 -19 29 C-19 19.76 -19 10.52 -19 1 C-16 1 -13 1 -10 1 C-6.83013832 -0.58493084 -3.45967739 -0.2940042 0 0 Z " fill="#020202" transform="translate(202,47)"/>
<path d="M0 0 C19 0 19 0 27 4 C29.97307695 8.45961542 29.62015709 12.77077414 29 18 C26.69195902 22.18866696 24.46164582 23.56137273 20 25 C16.88671875 25.1953125 16.88671875 25.1953125 13.6875 25.125 C11.810625 25.08375 9.93375 25.0425 8 25 C8 29.62 8 34.24 8 39 C5.36 39 2.72 39 0 39 C0 26.13 0 13.26 0 0 Z M8 7 C8 10.63 8 14.26 8 18 C9.588125 18.061875 11.17625 18.12375 12.8125 18.1875 C13.70582031 18.22230469 14.59914063 18.25710937 15.51953125 18.29296875 C18.04046389 18.20628578 18.04046389 18.20628578 19.80078125 16.64453125 C21.50731102 14.30430639 21.42408618 12.8272412 21 10 C19.85047348 8.25595059 19.85047348 8.25595059 18 7 C15.48710325 6.63786432 15.48710325 6.63786432 12.8125 6.8125 C11.224375 6.874375 9.63625 6.93625 8 7 Z " fill="#020202" transform="translate(104,37)"/>
<path d="M0 0 C0.99 0.66 1.98 1.32 3 2 C3.33 1.67 3.66 1.34 4 1 C6.64 1 9.28 1 12 1 C12 10.24 12 19.48 12 29 C9.36 29 6.72 29 4 29 C3.67 28.34 3.34 27.68 3 27 C2.34 27.66 1.68 28.32 1 29 C-4.29409654 29.80988594 -8.63925337 29.97196188 -13.0625 26.8125 C-16.87702294 21.27528928 -17.75203855 16.65084095 -17 10 C-13.97545692 1.56311667 -8.65970949 -1.39463486 0 0 Z M-6.625 8.0625 C-9.27155969 10.83783114 -9.27155969 10.83783114 -9.5625 14.5 C-8.92501775 18.46655624 -7.76383547 20.14979467 -5 23 C-1.41103589 22.76073573 0.42703402 22.60993153 2.9375 19.9375 C4.34266198 16.05264042 4.41296433 12.90891928 3 9 C-0.79560352 5.88565865 -2.65801348 4.94558202 -6.625 8.0625 Z " fill="#020202" transform="translate(367,47)"/>
<path d="M0 0 C2.64 0 5.28 0 8 0 C8.33 6.27 8.66 12.54 9 19 C10.423125 17.02 10.423125 17.02 11.875 15 C14.12628224 12.37427452 15.2635699 11.14536211 18.69140625 10.46875 C21.17127693 10.49697043 23.54667751 10.6445891 26 11 C25.0843974 12.22995949 24.16745797 13.45892386 23.25 14.6875 C22.73953125 15.37199219 22.2290625 16.05648437 21.703125 16.76171875 C19.84199528 19.20765299 17.92810389 21.60663626 16 24 C16.71027344 24.74765625 17.42054688 25.4953125 18.15234375 26.265625 C19.08110976 27.26006134 20.00947425 28.2548728 20.9375 29.25 C21.40607422 29.74113281 21.87464844 30.23226562 22.35742188 30.73828125 C24.79168774 33.36518686 26.59326218 35.36532157 27 39 C23.44349703 39.56452428 21.42344501 39.87385233 18 39 C14.523933 36.02498771 11.75231511 32.64372686 9 29 C8.67 32.3 8.34 35.6 8 39 C5.36 39 2.72 39 0 39 C0 26.13 0 13.26 0 0 Z " fill="#020202" transform="translate(413,37)"/>
<path d="M0 0 C0.680625 -0.01417969 1.36125 -0.02835938 2.0625 -0.04296875 C4 0.1875 4 0.1875 7 2.1875 C7.33 1.8575 7.66 1.5275 8 1.1875 C10.64 1.1875 13.28 1.1875 16 1.1875 C16 10.4275 16 19.6675 16 29.1875 C12.33333333 29.1875 8.66666667 29.1875 5 29.1875 C4.25105469 29.24550781 3.50210937 29.30351563 2.73046875 29.36328125 C-4.98613654 29.7781525 -4.98613654 29.7781525 -8.5 27.0625 C-12.01404819 23.02134458 -12.83343755 20.01968698 -13.3125 14.75 C-12.89185591 9.95465741 -11.52587042 6.09483803 -8.5 2.3125 C-5.82405021 0.30553766 -3.23071074 0.03059385 0 0 Z M-4 9.1875 C-5.08962696 12.24434537 -5.38296361 14.96610024 -5 18.1875 C-3.08088544 21.4414921 -3.08088544 21.4414921 0 23.1875 C3.2060553 23.26383465 4.43918357 22.69030094 6.8125 20.5625 C8.50860361 17.17029278 8.52560443 14.93243155 8 11.1875 C5.77023837 8.20630459 5.77023837 8.20630459 3 6.1875 C-0.20908881 6.1875 -1.55477027 7.11845946 -4 9.1875 Z " fill="#020202" transform="translate(290,46.8125)"/>
<path d="M0 0 C1.14662109 -0.00773437 1.14662109 -0.00773437 2.31640625 -0.015625 C4.4375 0.25 4.4375 0.25 7.4375 2.25 C7.7675 1.92 8.0975 1.59 8.4375 1.25 C10.7475 1.25 13.0575 1.25 15.4375 1.25 C15.4375 10.49 15.4375 19.73 15.4375 29.25 C13.1275 29.25 10.8175 29.25 8.4375 29.25 C8.1075 28.59 7.7775 27.93 7.4375 27.25 C6.4475 27.91 5.4575 28.57 4.4375 29.25 C-0.35939791 29.94920885 -4.33709282 29.96482085 -8.5625 27.5 C-13.05415804 22.44688471 -12.98648312 17.99242577 -12.8828125 11.39453125 C-12.4432876 7.07968318 -11.56622846 5.33716536 -8.5625 2.25 C-5.62702426 0.46399476 -3.42136131 -0.02315642 0 0 Z M-2.1875 7.6875 C-4.77943296 10.48405925 -4.97530546 11.11541659 -5.125 14.75 C-4.93405246 17.87741113 -4.6238263 19.15093443 -2.9375 21.875 C-0.57647542 23.47826527 -0.57647542 23.47826527 2.5 23.4375 C5.7382853 22.46225781 5.7382853 22.46225781 7.4375 19.0625 C8.56265243 14.77285638 8.47152977 13.14118739 6.4375 9.25 C3.18285227 6.19876776 1.83218158 5.4862458 -2.1875 7.6875 Z " fill="#020202" transform="translate(241.5625,46.75)"/>
<path d="M0 0 C3.1760112 3.09854751 4.83427259 6.10608856 5.5625 10.5 C5.2325 12.15 4.9025 13.8 4.5625 15.5 C-4.8425 15.995 -4.8425 15.995 -14.4375 16.5 C-14.1075 17.82 -13.7775 19.14 -13.4375 20.5 C-9.4274066 20.67864631 -9.4274066 20.67864631 -5.4375 20.5 C-4.7775 19.84 -4.1175 19.18 -3.4375 18.5 C-0.74910615 18.23008094 1.85391936 18.41262643 4.5625 18.5 C3.21677223 24.00524998 3.21677223 24.00524998 0.3515625 26.171875 C-4.4601028 28.46314419 -9.22717081 28.10716573 -14.4375 27.5 C-18.03612827 26.04792193 -19.61563938 24.94635686 -21.52734375 21.58203125 C-23.95428874 15.69695005 -23.73806905 10.41132764 -21.4375 4.5 C-15.92846045 -2.42161379 -7.9803405 -3.4823304 0 0 Z M-13.375 5.8125 C-14.61510442 7.44972228 -14.61510442 7.44972228 -14.4375 9.5 C-10.4775 9.5 -6.5175 9.5 -2.4375 9.5 C-3.0975 8.18 -3.7575 6.86 -4.4375 5.5 C-9.09490552 4.11845304 -9.09490552 4.11845304 -13.375 5.8125 Z " fill="#020202" transform="translate(156.4375,48.5)"/>
<path d="M0 0 C3.44312714 2.1244827 4.71617547 3.14852641 6 7 C6.08178114 8.70016844 6.10749501 10.40336297 6.09765625 12.10546875 C6.09443359 13.08837891 6.09121094 14.07128906 6.08789062 15.08398438 C6.07951172 16.10814453 6.07113281 17.13230469 6.0625 18.1875 C6.05798828 19.22326172 6.05347656 20.25902344 6.04882812 21.32617188 C6.0370401 23.88417266 6.02058515 26.44205733 6 29 C3.36 29 0.72 29 -2 29 C-2.495 19.1 -2.495 19.1 -3 9 C-4.32 8.34 -5.64 7.68 -7 7 C-10.11785113 7.64644661 -10.11785113 7.64644661 -11 10 C-11.15067214 11.4465242 -11.24861036 12.8987934 -11.31640625 14.3515625 C-11.35830078 15.20234375 -11.40019531 16.053125 -11.44335938 16.9296875 C-11.48267578 17.81914063 -11.52199219 18.70859375 -11.5625 19.625 C-11.60568359 20.5221875 -11.64886719 21.419375 -11.69335938 22.34375 C-11.79956861 24.56234283 -11.90161194 26.7810488 -12 29 C-14.64 29 -17.28 29 -20 29 C-20 19.76 -20 10.52 -20 1 C-16.7 1 -13.4 1 -10 1 C-6.79582279 -0.6020886 -3.47660568 -0.49285215 0 0 Z " fill="#020202" transform="translate(403,47)"/>
<path d="M0 0 C2.31 0 4.62 0 7 0 C7 2.64 7 5.28 7 8 C8.98 8 10.96 8 13 8 C13 9.98 13 11.96 13 14 C11.02 14 9.04 14 7 14 C7 21.26 7 28.52 7 36 C4.69 36 2.38 36 0 36 C0 28.74 0 21.48 0 14 C-1.65 14 -3.3 14 -5 14 C-5 12.02 -5 10.04 -5 8 C-3.35 8 -1.7 8 0 8 C0 5.36 0 2.72 0 0 Z " fill="#030303" transform="translate(264,40)"/>
<path d="M0 0 C0 2.64 0 5.28 0 8 C-1.423125 8.4021875 -1.423125 8.4021875 -2.875 8.8125 C-6.25267273 9.74986588 -6.25267273 9.74986588 -8 13 C-8.30066154 15.75417318 -8.50925299 18.42645147 -8.625 21.1875 C-8.68300781 22.31188477 -8.68300781 22.31188477 -8.7421875 23.45898438 C-8.83628216 25.30559199 -8.91922319 27.1527619 -9 29 C-11.64 29 -14.28 29 -17 29 C-17 19.76 -17 10.52 -17 1 C-13.33333333 1 -9.66666667 1 -6 1 C-1.875 0 -1.875 0 0 0 Z " fill="#020202" transform="translate(181,47)"/>
</svg>
