<?xml version="1.0" encoding="UTF-8"?>
<svg version="1.1" xmlns="http://www.w3.org/2000/svg" width="400" height="400">
<path d="M0 0 C132 0 264 0 400 0 C400 132 400 264 400 400 C268 400 136 400 0 400 C0 268 0 136 0 0 Z " fill="#FEFEFD" transform="translate(0,0)"/>
<path d="M0 0 C21.95954838 18.61729438 37.81551167 45.6955773 40.37890625 74.65917969 C41.1276134 87.86680785 41.28435617 100.9259392 37.37890625 113.65917969 C37.18022949 114.34496094 36.98155273 115.03074219 36.77685547 115.73730469 C27.44132969 147.73682976 7.23832595 171.42790083 -21.62109375 187.65917969 C-22.61302734 188.27986328 -22.61302734 188.27986328 -23.625 188.91308594 C-38.40008028 194.43566976 -63.72993309 179.78256643 -77.1640625 174.47167969 C-88.48503531 170.02003235 -99.72052154 166.23443457 -111.62109375 163.65917969 C-112.3598877 163.49546875 -113.09868164 163.33175781 -113.85986328 163.16308594 C-122.592444 161.31540547 -131.13269042 160.56220148 -140.046875 160.65527344 C-140.78669617 160.66227768 -141.52651733 160.66928192 -142.28875732 160.67649841 C-146.01638435 160.72090374 -149.7380951 160.80587219 -153.46337891 160.94506836 C-154.8479743 160.97769481 -156.23257693 161.01001607 -157.6171875 161.04199219 C-158.84622803 161.08727051 -160.07526855 161.13254883 -161.34155273 161.17919922 C-166.3633799 160.38291456 -168.2685697 157.3034842 -171.359375 153.54589844 C-178.52339185 143.53760691 -183.79028595 132.51163652 -187.99609375 120.97167969 C-188.23465088 120.33222412 -188.47320801 119.69276855 -188.71899414 119.03393555 C-192.44052426 108.29704542 -192.98802792 97.05360845 -192.93359375 85.78417969 C-192.9279541 84.55473633 -192.92231445 83.32529297 -192.91650391 82.05859375 C-192.64949974 62.08879724 -186.73681137 44.78165583 -176.62109375 27.65917969 C-176.1621875 26.87285156 -175.70328125 26.08652344 -175.23046875 25.27636719 C-165.56789458 9.7829293 -150.46109758 -3.61630353 -134.62109375 -12.34082031 C-134.01813477 -12.68242188 -133.41517578 -13.02402344 -132.79394531 -13.37597656 C-122.80066812 -18.99169065 -112.82735318 -22.39429772 -101.65234375 -24.88427734 C-100.0094959 -25.2535232 -98.37593863 -25.6639516 -96.74609375 -26.08691406 C-63.60354391 -33.78830786 -25.55672454 -21.13818241 0 0 Z " fill="#E95F01" transform="translate(276.62109375,100.3408203125)"/>
<path d="M0 0 C1.05058594 0.71671875 2.10117187 1.4334375 3.18359375 2.171875 C11.84324765 8.09062927 19.46200517 14.72265506 27 22 C27.98033203 22.88558594 27.98033203 22.88558594 28.98046875 23.7890625 C50.70058172 43.90983223 64.85995448 76.77874587 67 106 C68.36648376 143.03751357 62.47888337 176.0538793 39 206 C38.04673828 207.34384766 38.04673828 207.34384766 37.07421875 208.71484375 C32.47247652 214.99497693 28.24463821 218.23115882 21 221 C19.24816406 221.67869141 19.24816406 221.67869141 17.4609375 222.37109375 C9.48143308 225.3361096 2.6731461 227.14972598 -5.875 227.0625 C-7.02742187 227.05347656 -8.17984375 227.04445313 -9.3671875 227.03515625 C-10.23601562 227.02355469 -11.10484375 227.01195312 -12 227 C-9.04973109 223.88233994 -5.92966872 221.42526334 -2.4375 218.9375 C13.0919938 207.51580779 23.99448364 192.79952827 33 176 C33.47179687 175.195625 33.94359375 174.39125 34.4296875 173.5625 C38.64010539 166.0308208 40.48012852 157.64311056 42.44848633 149.3034668 C42.79817419 147.84295111 43.1704238 146.38750542 43.57299805 144.94067383 C45.4762067 137.66169054 45.44088815 130.29538867 45.4375 122.8125 C45.43823517 122.10713104 45.43897034 121.40176208 45.43972778 120.67501831 C45.35733587 90.46450807 34.63642327 61.06982846 13.3125 39.25 C12.549375 38.5075 11.78625 37.765 11 37 C10.319375 36.0925 9.63875 35.185 8.9375 34.25 C-5.75443588 16.33412834 -32.12732116 6.11024365 -54 1 C-54.82830322 0.80494873 -55.65660645 0.60989746 -56.51000977 0.40893555 C-64.73374649 -1.31220422 -72.94788148 -1.44004353 -81.3125 -1.4375 C-82.43309311 -1.43910126 -82.43309311 -1.43910126 -83.57632446 -1.44073486 C-118.00084734 -1.36996964 -147.36632918 12.27733772 -172 36 C-172.96679688 36.87205078 -172.96679688 36.87205078 -173.953125 37.76171875 C-192.8820963 55.31966643 -205.91385608 84.21553388 -207.14038086 109.94482422 C-207.86023866 134.79338189 -204.95728395 154.99744827 -194 177.375 C-193.67999023 178.02952148 -193.35998047 178.68404297 -193.03027344 179.35839844 C-191.33765256 182.70777234 -189.51631765 185.75572282 -187.28515625 188.77734375 C-185 192 -185 192 -184.4375 195.1875 C-185.1506621 198.75331051 -186.12396477 199.80513101 -189 202 C-193.09700974 204.49383201 -196.19619335 205.81766922 -201 205 C-205.43699587 201.22600351 -208.11416617 196.91042475 -210.875 191.875 C-211.52408325 190.69127808 -211.52408325 190.69127808 -212.1862793 189.48364258 C-228.15884343 159.51843749 -233.93524433 123.17025855 -226 90 C-225.83371094 89.30148926 -225.66742188 88.60297852 -225.49609375 87.88330078 C-219.44124985 63.43406535 -206.52112534 38.41617184 -188 21 C-187.34 21 -186.68 21 -186 21 C-185.76925781 20.42636719 -185.53851563 19.85273437 -185.30078125 19.26171875 C-174.68878461 0.8102291 -141.92708114 -12.21395078 -122.50976562 -17.70410156 C-118.0158802 -18.85773936 -113.4975054 -19.80803178 -108.93408203 -20.64160156 C-107.24014876 -20.95549882 -105.55460216 -21.31398155 -103.87109375 -21.6796875 C-70.95912529 -28.07801958 -27.10095679 -20.45715962 0 0 Z " fill="#E86005" transform="translate(281,66)"/>
<path d="M0 0 C0.70492584 0.00087616 1.40985168 0.00175232 2.13613892 0.00265503 C14.00277691 0.05115193 25.12871537 1.07321301 36.5625 4.375 C37.31208984 4.58447266 38.06167969 4.79394531 38.83398438 5.00976562 C48.30957388 7.72968505 57.44115272 11.28907734 66.5546875 15.0234375 C67.75899162 15.51625465 67.75899162 15.51625465 68.98762512 16.01902771 C73.02249048 17.67413568 77.04946476 19.34546065 81.06616211 21.04418945 C90.76611203 25.10523653 100.28696172 28.15232246 110.5625 30.375 C111.47290039 30.59583252 112.38330078 30.81666504 113.32128906 31.04418945 C141.80949507 37.59257591 169.38791074 29.2003006 193.5625 14.375 C195.0475 13.385 195.0475 13.385 196.5625 12.375 C201.03251637 11.5661399 205.28173358 11.66037048 209.125 14.25 C212.09015534 18.05148121 212.20799687 20.18866755 212.1640625 24.875 C210.90974214 30.08775993 207.26601236 32.88004942 202.84472656 35.60839844 C202.2359668 35.96450195 201.62720703 36.32060547 201 36.6875 C200.34870117 37.07067383 199.69740234 37.45384766 199.02636719 37.84863281 C169.44620736 54.74562115 136.82469741 59.38915605 103.5625 52.375 C102.39976562 52.14296875 101.23703125 51.9109375 100.0390625 51.671875 C86.42331607 48.49382892 73.48846417 42.60013653 60.5625 37.375 C58.94307384 36.7256502 57.32333807 36.07707134 55.703125 35.4296875 C55.031604 35.16124023 54.36008301 34.89279297 53.66821289 34.61621094 C51.90784593 33.91308318 50.14728779 33.21043412 48.38671875 32.5078125 C46.73904233 31.84691878 45.09421918 31.1786522 43.45703125 30.4921875 C22.14085035 21.85663447 -8.72889511 18.36388099 -30.4375 27.375 C-31.0871875 27.6328125 -31.736875 27.890625 -32.40625 28.15625 C-42.00874474 32.02591206 -50.35747658 36.97774732 -58.46630859 43.42578125 C-63.23367329 47.07245506 -67.3591545 48.66150103 -73.4375 48.375 C-77.12264299 46.85287572 -79.60724759 44.93917575 -81.4375 41.375 C-82.31164002 34.60041481 -82.31164002 34.60041481 -79.328125 30.41796875 C-76.4780722 27.20863167 -73.2814321 24.87686465 -69.6875 22.5625 C-69.03628174 22.1387207 -68.38506348 21.71494141 -67.71411133 21.27832031 C-46.46003662 7.68662628 -25.44357379 -0.07744754 0 0 Z " fill="#2773DB" transform="translate(133.4375,270.625)"/>
<path d="M0 0 C2.27724115 2.53244921 2.98587287 3.36427911 3.0625 6.8125 C1.62156878 11.13529367 -0.54630067 14.03968629 -4 17 C-7.15078882 18.30141277 -8.81540672 18.48832346 -11.98046875 17.18359375 C-13.33141043 16.49671721 -14.66444424 15.77294263 -15.97265625 15.0078125 C-20.71039352 12.65263675 -25.80837282 12.78831459 -31 12.75 C-31.69867188 12.729375 -32.39734375 12.70875 -33.1171875 12.6875 C-37.60753629 12.65361058 -40.44026931 13.22233135 -44 16 C-45.61805999 19.23611998 -45.56062376 22.50116737 -45 26 C-40.18030331 33.14644682 -30.1770148 35.57744317 -22.4375 38.4375 C-9.34918865 43.40577951 0.73398742 50.25770596 7 63 C9.63496821 71.00072164 8.46300502 79.81771761 5.32421875 87.4609375 C0.77725443 96.17930567 -6.47605649 101.54172954 -15.625 104.75 C-31.7648288 109.60841785 -47.12659237 106.44457073 -61.84375 98.9140625 C-70.17168675 93.86370482 -70.17168675 93.86370482 -72.25 89.1875 C-71.8119874 83.60283933 -67.84100974 79.84100974 -64 76 C-59.93346729 75.32224455 -57.68026614 76.01205938 -54.375 78.25 C-45.8867732 83.91419697 -36.14747745 86.431238 -26 85 C-22.05188866 83.75389722 -19.10154196 81.96384921 -16 79.25 C-14.47373513 75.81590405 -14.25863533 72.63414056 -15 69 C-19.94793684 61.90795719 -29.08650458 59.28305275 -36.93237305 56.56274414 C-49.01603713 52.34093966 -58.61668871 47.90800374 -64.9765625 36.19921875 C-67.13101152 31.56962028 -67.25165362 27.33029823 -67.3125 22.3125 C-67.34150391 21.53455078 -67.37050781 20.75660156 -67.40039062 19.95507812 C-67.47757418 12.83637951 -65.37077386 7.76590284 -60.75 2.375 C-59.8425 1.59125 -58.935 0.8075 -58 0 C-57.42378906 -0.5053125 -56.84757813 -1.010625 -56.25390625 -1.53125 C-40.40572624 -14.54142595 -15.992659 -10.88352335 0 0 Z " fill="#FDFBF7" transform="translate(234,135)"/>
<path d="M0 0 C1.02609375 -0.01224609 2.0521875 -0.02449219 3.109375 -0.03710938 C14.69083078 -0.05893373 25.08380164 2.04173111 36 5.8125 C37.0302832 6.16223877 38.06056641 6.51197754 39.12207031 6.87231445 C50.1522746 10.66808223 61.01697633 14.91139573 71.703125 19.58984375 C99.1957193 31.60825439 132.37458155 37.89597282 161.5 28.1875 C166.14796219 27.65655301 169.46344284 27.53965177 173.5 30.0625 C176.20128829 32.93261881 176.70651529 34.64429219 176.875 38.5 C176.94847656 39.63888672 176.94847656 39.63888672 177.0234375 40.80078125 C176.22158327 44.45699717 174.37603446 45.87123064 171.5 48.1875 C132.3784631 63.62162243 88.50441992 50.55216781 51.7578125 35.515625 C43.7326355 32.24397011 35.65794966 29.11282538 27.5 26.1875 C26.84354492 25.9488623 26.18708984 25.71022461 25.51074219 25.46435547 C11.27352929 20.45109461 -5.94995701 19.3884069 -19.87890625 25.74609375 C-22.91246408 27.41432451 -25.78469084 29.25590024 -28.66796875 31.16796875 C-32.05748251 33.054244 -34.60664384 33.25029607 -38.5 33.1875 C-42.29560358 31.21940926 -44.1288722 29.7441917 -46.5 26.1875 C-46.99567257 21.809059 -46.88940978 18.32958594 -44.12890625 14.72265625 C-36.28935329 7.33430059 -25.60625185 4.12705883 -15.5 1.1875 C-14.88060547 1.00646729 -14.26121094 0.82543457 -13.62304688 0.63891602 C-9.16764369 -0.30842075 -4.53617825 0.00276596 0 0 Z " fill="#2873DB" transform="translate(131.5,302.8125)"/>
<path d="M0 0 C0.64839844 0.18191895 1.29679688 0.36383789 1.96484375 0.55126953 C22.4153389 6.30682891 44.80620341 18.03654725 58 35 C58.763125 35.7425 59.52625 36.485 60.3125 37.25 C68.48663459 45.61423074 84 63.40220369 84 76 C83.34 76 82.68 76 82 76 C82 75.01 82 74.02 82 73 C80.04105639 73.11306697 80.04105639 73.11306697 78 74 C76.70339566 76.49034386 76.70339566 76.49034386 76 79 C76.66 79 77.32 79 78 79 C78.33 82.63 78.66 86.26 79 90 C77.18826807 87.2824021 76.19841125 84.87153491 75.1484375 81.80859375 C70.87245279 69.42703364 64.41880016 58.07324099 56 48 C55.35804688 47.22527344 54.71609375 46.45054688 54.0546875 45.65234375 C34.15773987 22.58186863 5.27546972 8.60523264 -25 6 C-56.71099223 3.86009776 -87.40259311 12.9701258 -111.4934082 33.90649414 C-132.56151231 52.67422812 -148.42615777 78.56708207 -150.20629883 107.33374023 C-150.9970958 135.79630092 -145.65489845 158.62758305 -131 183 C-130.505 183.99 -130.505 183.99 -130 185 C-131.65 185.33 -133.3 185.66 -135 186 C-134.505 183.03 -134.505 183.03 -134 180 C-134.99 179.67 -135.98 179.34 -137 179 C-138.37195574 177.70644173 -139.71182656 176.37701298 -141 175 C-141.28875 175.763125 -141.5775 176.52625 -141.875 177.3125 C-143 180 -143 180 -145 183 C-161.03136778 152.01132631 -168.3365734 119.10939524 -157.7109375 84.7578125 C-151.36117633 65.21824199 -141.17659135 48.80722264 -127 34 C-126.31679687 33.25363281 -125.63359375 32.50726563 -124.9296875 31.73828125 C-118.6673965 25.11781493 -111.53384018 20.05058104 -104 15 C-103.19046875 14.44441406 -102.3809375 13.88882813 -101.546875 13.31640625 C-72.52875329 -5.40332611 -32.91721097 -9.9950713 0 0 Z " fill="#FCF8F0" transform="translate(235,68)"/>
<path d="M0 0 C0.68420013 -0.00045319 1.36840027 -0.00090637 2.07333374 -0.00137329 C13.5070843 0.0208366 24.10976263 1.23760391 35.125 4.375 C36.58292969 4.75011719 36.58292969 4.75011719 38.0703125 5.1328125 C42.38660143 6.30998221 46.47436722 7.89554942 50.59765625 9.625 C52.18332397 10.2900354 52.18332397 10.2900354 53.80102539 10.96850586 C57.05852735 12.34687301 60.31145278 13.73538908 63.5625 15.12890625 C64.64273438 15.59103516 65.72296875 16.05316406 66.8359375 16.52929688 C69.03006168 17.46870515 71.22277314 18.41141988 73.4140625 19.35742188 C83.85890464 23.8133062 94.19955023 27.47371325 105.375 29.5625 C106.20773438 29.72685547 107.04046875 29.89121094 107.8984375 30.06054688 C131.20145152 34.57139677 153.36855545 32.55738667 176.125 26.375 C175.795 27.035 175.465 27.695 175.125 28.375 C172.80343403 28.78229228 170.4681213 29.11938677 168.125 29.375 C169.115 30.695 170.105 32.015 171.125 33.375 C170.465 34.365 169.805 35.355 169.125 36.375 C169.785 36.705 170.445 37.035 171.125 37.375 C171.125 38.035 171.125 38.695 171.125 39.375 C170.45855469 39.34019531 169.79210937 39.30539062 169.10546875 39.26953125 C162.91332873 39.0876642 157.73323781 39.746311 151.828125 41.62109375 C122.09367421 49.91408364 86.85840369 39.2060243 59.9675293 26.64916992 C54.62254922 24.25327101 49.12005074 22.27123913 43.625 20.25 C42.47902344 19.82074219 41.33304687 19.39148438 40.15234375 18.94921875 C17.54832409 10.59164607 -5.94261943 7.25730652 -28.875 16.375 C-34.49576749 18.50141084 -34.49576749 18.50141084 -37.875 17.375 C-37.875 15.395 -37.875 13.415 -37.875 11.375 C-39.525 11.375 -41.175 11.375 -42.875 11.375 C-39.48432464 8.51385077 -35.77421858 6.91843665 -31.6875 5.3125 C-31.06552734 5.05662109 -30.44355469 4.80074219 -29.80273438 4.53710938 C-19.92726568 0.60511621 -10.59084684 -0.0272111 0 0 Z " fill="#F2F9FC" transform="translate(132.875,292.625)"/>
<path d="M0 0 C0.33 0.99 0.66 1.98 1 3 C1.99 3.33 2.98 3.66 4 4 C4.66 4.33 5.32 4.66 6 5 C6 5.99 6 6.98 6 8 C8.97 8.495 8.97 8.495 12 9 C12 9.33 12 9.66 12 10 C10.02 10 8.04 10 6 10 C6 10.66 6 11.32 6 12 C3.69 12 1.38 12 -1 12 C-1 13.32 -1 14.64 -1 16 C-8.43659188 18.01670288 -15.31604457 18.2137731 -23 18 C-19.96514313 14.80579503 -16.72594341 12.18340096 -13.1875 9.5625 C-12.13433594 8.78132813 -11.08117187 8.00015625 -9.99609375 7.1953125 C-6.68338003 4.76800466 -3.3572127 2.36530895 0 0 Z " fill="#E66006" transform="translate(292,275)"/>
<path d="M0 0 C-1.49097658 3.7952131 -3.75700849 5.61042731 -7 8 C-4.7763932 9.2981424 -4.7763932 9.2981424 -1 9 C0.4606285 11.64738916 1 12.89448334 1 16 C1.66 16.33 2.32 16.66 3 17 C2.01 17.66 1.02 18.32 0 19 C3.96 18.01 7.92 17.02 12 16 C12 15.34 12 14.68 12 14 C13.65 14 15.3 14 17 14 C10.74633664 18.95081683 5.21438654 23.13249011 -3 23 C-6.79560358 21.03190926 -8.6288722 19.5566917 -11 16 C-11.47594047 11.79585919 -11.27531214 9.53023079 -9.3125 5.75 C-6.73009337 2.67902995 -4.21463609 0 0 0 Z " fill="#3677D3" transform="translate(96,313)"/>
<path d="M0 0 C2.4375 0.875 2.4375 0.875 4.4375 3.875 C4.4375 4.865 4.4375 5.855 4.4375 6.875 C5.7575 7.205 7.0775 7.535 8.4375 7.875 C8.4375 8.535 8.4375 9.195 8.4375 9.875 C9.0975 9.875 9.7575 9.875 10.4375 9.875 C11.66826923 15.29038462 11.66826923 15.29038462 10.5 18.25 C10.149375 18.78625 9.79875 19.3225 9.4375 19.875 C8.4475 19.545 7.4575 19.215 6.4375 18.875 C6.4375 17.555 6.4375 16.235 6.4375 14.875 C5.385625 14.8440625 5.385625 14.8440625 4.3125 14.8125 C0.10717051 13.44119691 -2.17281214 10.52759253 -4.5625 6.875 C-5.3046875 4.7578125 -5.3046875 4.7578125 -5.5625 2.875 C-3.91333013 0.2180041 -3.14395745 -0.15336378 0 0 Z " fill="#FCFBF6" transform="translate(291.5625,104.125)"/>
<path d="M0 0 C3.63 0 7.26 0 11 0 C11.66 1.65 12.32 3.3 13 5 C15.11695955 6.16553015 15.11695955 6.16553015 17.5625 6.6875 C19.05508567 7.07676634 20.538949 7.50535847 22 8 C22.495 8.99 22.495 8.99 23 10 C21.97261719 9.73445313 20.94523437 9.46890625 19.88671875 9.1953125 C18.48702937 8.83834474 17.08728687 8.48158527 15.6875 8.125 C14.68106445 7.86396484 14.68106445 7.86396484 13.65429688 7.59765625 C11.44194484 7.03677827 9.22450959 6.51055456 7 6 C5.78376953 5.71878296 5.78376953 5.71878296 4.54296875 5.43188477 C-2.75830048 3.91554044 -9.91512092 3.65989481 -17.36035156 3.68432617 C-19.36578891 3.68748549 -21.36974361 3.66393379 -23.375 3.63867188 C-31.97826929 3.63442963 -39.71707236 4.67059185 -48 7 C-48.33 6.34 -48.66 5.68 -49 5 C-46.36 4.67 -43.72 4.34 -41 4 C-41 3.34 -41 2.68 -41 2 C-33.78186715 1.04365432 -26.71399707 0.84896602 -19.4375 0.875 C-18.35275391 0.87113281 -17.26800781 0.86726563 -16.15039062 0.86328125 C-10.33777788 0.87033967 -4.74730702 1.12222947 1 2 C0.505 1.01 0.505 1.01 0 0 Z " fill="#3876CE" transform="translate(153,290)"/>
<path d="M0 0 C0.66 0 1.32 0 2 0 C5.91176471 41.20519836 5.91176471 41.20519836 -1 54 C-2.11350844 50.63511973 -1.82739304 48.41705407 -1.0703125 44.984375 C0.5340594 36.11314216 0.21405968 27.22990465 0.125 18.25 C0.11494574 16.4739634 0.10582423 14.69792127 0.09765625 12.921875 C0.0758466 8.61444411 0.04145299 4.3072848 0 0 Z " fill="#FCE5CF" transform="translate(347,166)"/>
<path d="M0 0 C1.27875 0.00064453 2.5575 0.00128906 3.875 0.00195312 C13.32797452 0.04682484 13.32797452 0.04682484 16.75 1.1875 C18.58016552 1.38595168 20.41429914 1.54932897 22.25 1.6875 C25.35593842 1.92128031 27.78220722 2.19823574 30.75 3.1875 C30.75 3.8475 30.75 4.5075 30.75 5.1875 C29.76128906 5.043125 28.77257812 4.89875 27.75390625 4.75 C11.46498807 2.61168642 -4.85819071 2.99677815 -21.25 3.1875 C-21.25 2.8575 -21.25 2.5275 -21.25 2.1875 C-14.2956983 -0.44638971 -7.35360435 -0.07128494 0 0 Z " fill="#FFF6E2" transform="translate(200.25,40.8125)"/>
<path d="M0 0 C4 4 4 4 4.5625 7.875 C4.30297559 12.52048698 2.43358484 14.85863515 -1 18 C-7.01373371 21.68187778 -13.07648813 21.69771825 -20 21 C-23.11606236 20.23634528 -26.04804245 19.25234563 -29 18 C-29 17.67 -29 17.34 -29 17 C-27.33388095 16.957279 -25.66617115 16.95936168 -24 17 C-23.67 17.33 -23.34 17.66 -23 18 C-20.38329079 18.12713954 -17.80469287 18.18521024 -15.1875 18.1875 C-14.09985352 18.20586914 -14.09985352 18.20586914 -12.99023438 18.22460938 C-7.67405339 18.24446035 -7.67405339 18.24446035 -3 16 C-1.73195434 13.9664052 -1.73195434 13.9664052 -1 12 C-0.01 12 0.98 12 2 12 C1.34 8.04 0.68 4.08 0 0 Z " fill="#DB7A3C" transform="translate(216,200)"/>
<path d="M0 0 C0.33 0 0.66 0 1 0 C1.01458252 0.55236328 1.02916504 1.10472656 1.04418945 1.67382812 C1.50386303 17.35795563 2.75355705 31.91706838 8.328125 46.7421875 C9 49 9 49 8 51 C4.86406279 49.4320314 4.26361588 47.18912579 3 44 C3.3125 40.625 3.3125 40.625 4 38 C3.01 38 2.02 38 1 38 C-0.27786205 30.19196105 -0.11158147 22.38637319 -0.0625 14.5 C-0.05747533 13.09114742 -0.05291413 11.68229311 -0.04882812 10.2734375 C-0.0371003 6.84891362 -0.02068691 3.42447953 0 0 Z " fill="#FDE8D0" transform="translate(83,179)"/>
<path d="M0 0 C0 6.41265867 -3.65124189 12.67243028 -7 18 C-8.50442005 21.09241898 -9.12165281 23.73738408 -9.4375 27.125 C-10 31 -10 31 -11.4921875 32.38671875 C-13.64690641 34.69215634 -13.50508089 36.58637506 -13.6875 39.6875 C-13.75324219 40.68136719 -13.81898437 41.67523438 -13.88671875 42.69921875 C-13.92410156 43.45847656 -13.96148437 44.21773437 -14 45 C-14.66 45 -15.32 45 -16 45 C-16.21797385 29.39930018 -8.9740498 14.10987848 -1 1 C-0.67 0.67 -0.34 0.34 0 0 Z " fill="#D9732F" transform="translate(101,127)"/>
<path d="M0 0 C1.4915304 0.01005708 2.98306742 0.01917808 4.47460938 0.02734375 C8.08737974 0.04912456 11.69989593 0.0835015 15.3125 0.125 C15.3125 0.785 15.3125 1.445 15.3125 2.125 C3.7625 2.125 -7.7875 2.125 -19.6875 2.125 C-19.6875 2.785 -19.6875 3.445 -19.6875 4.125 C-23.3175 4.125 -26.9475 4.125 -30.6875 4.125 C-22.07669989 -1.6155334 -9.97557254 -0.11810686 0 0 Z " fill="#3674C7" transform="translate(134.6875,270.875)"/>
<path d="M0 0 C5.75 -0.125 5.75 -0.125 8 1 C8 1.66 8 2.32 8 3 C9.051875 3.185625 9.051875 3.185625 10.125 3.375 C13 4 13 4 15.8125 5.125 C19.94647904 6.25981778 22.77144564 5.62388507 27 5 C27.99 5.33 28.98 5.66 30 6 C29.814375 6.78375 29.62875 7.5675 29.4375 8.375 C28.74037734 10.97089775 28.74037734 10.97089775 30 13 C23.40135603 10.88202865 16.93935389 8.49709568 10.5 5.9375 C9.14261719 5.4105957 9.14261719 5.4105957 7.7578125 4.87304688 C6.89929688 4.53208984 6.04078125 4.19113281 5.15625 3.83984375 C4.38087891 3.53425537 3.60550781 3.22866699 2.80664062 2.91381836 C1 2 1 2 0 0 Z " fill="#3075D1" transform="translate(178,300)"/>
<path d="M0 0 C0 0.33 0 0.66 0 1 C-3.63 1.33 -7.26 1.66 -11 2 C-11 1.34 -11 0.68 -11 0 C-31.79 0.495 -31.79 0.495 -53 1 C-53 0.67 -53 0.34 -53 0 C-35.90847862 -3.80566679 -17.15729298 -3.12458019 0 0 Z " fill="#D5712C" transform="translate(227,45)"/>
<path d="M0 0 C1.20628008 2.33214148 2.1654738 4.49642139 3 7 C6.06715634 8.53357817 9.3063793 8.21940212 12.67578125 8.28125 C13.43795456 8.29965942 14.20012787 8.31806885 14.98539734 8.33703613 C17.42768558 8.39584696 19.87004523 8.44860013 22.3125 8.5 C25.51706731 8.56787859 28.7214243 8.64164279 31.92578125 8.71875 C33.02603386 8.73911316 33.02603386 8.73911316 34.14851379 8.7598877 C37.87462471 8.84965851 41.37302609 9.1231004 45 10 C45 10.33 45 10.66 45 11 C39.25260242 11.12377604 33.50598373 11.21442248 27.75756836 11.2746582 C25.80300377 11.29977281 23.84853283 11.33387131 21.89428711 11.37719727 C19.08163332 11.43798434 16.27022298 11.46623983 13.45703125 11.48828125 C12.58601273 11.51408768 11.7149942 11.5398941 10.81758118 11.56648254 C6.36691389 11.56853114 4.59035068 11.46811336 0.9909668 8.61401367 C-0.66539039 6.43932128 -1.9721457 4.52291509 -3 2 C-2.01 2 -1.02 2 0 2 C0 1.34 0 0.68 0 0 Z " fill="#D5681F" transform="translate(108,250)"/>
<path d="M0 0 C0.66 0 1.32 0 2 0 C0.5137853 4.19408231 -1.58278016 7.62667323 -4.0625 11.3125 C-4.77535156 12.38113281 -5.48820312 13.44976562 -6.22265625 14.55078125 C-6.80917969 15.35902344 -7.39570313 16.16726563 -8 17 C-8.33 17 -8.66 17 -9 17 C-9 15.02 -9 13.04 -9 11 C-8.34 11 -7.68 11 -7 11 C-7.66 10.071875 -8.32 9.14375 -9 8.1875 C-11 5 -11 5 -11 2 C-7.625 1.375 -7.625 1.375 -4 1 C-3.34 1.66 -2.68 2.32 -2 3 C-1.34 3 -0.68 3 0 3 C0 2.01 0 1.02 0 0 Z " fill="#E4630B" transform="translate(301,240)"/>
<path d="M0 0 C0 0.66 0 1.32 0 2 C-0.91523438 2.08636719 -1.83046875 2.17273438 -2.7734375 2.26171875 C-3.96195313 2.40222656 -5.15046875 2.54273437 -6.375 2.6875 C-7.55835938 2.81511719 -8.74171875 2.94273438 -9.9609375 3.07421875 C-10.96382812 3.37972656 -11.96671875 3.68523437 -13 4 C-14.35723485 6.45698616 -14.35723485 6.45698616 -15 9 C-17.49476051 10.04618989 -19.26856911 10 -22 10 C-25.13647681 11.40821408 -27.56097476 12.56097476 -30 15 C-30.99 14.01 -31.98 13.02 -33 12 C-9.28093645 -0.40133779 -9.28093645 -0.40133779 0 0 Z " fill="#DD6B1E" transform="translate(173,77)"/>
<path d="M0 0 C0.66 0.33 1.32 0.66 2 1 C1.59007812 1.47050781 1.18015625 1.94101563 0.7578125 2.42578125 C0.21898437 3.04839844 -0.31984375 3.67101562 -0.875 4.3125 C-1.40867188 4.92738281 -1.94234375 5.54226562 -2.4921875 6.17578125 C-4.1640447 8.13498212 -4.1640447 8.13498212 -6 11 C-6.66 11.144375 -7.32 11.28875 -8 11.4375 C-10.2074709 11.81270124 -10.2074709 11.81270124 -11.25 14.0625 C-11.4975 14.701875 -11.745 15.34125 -12 16 C-12.763125 15.938125 -13.52625 15.87625 -14.3125 15.8125 C-17.04525312 15.74101915 -17.04525312 15.74101915 -18.8125 17.5 C-19.204375 17.995 -19.59625 18.49 -20 19 C-20.66 18.67 -21.32 18.34 -22 18 C-15.54315399 10.92929891 -7.94563529 5.29709019 0 0 Z " fill="#DA6616" transform="translate(138,90)"/>
<path d="M0 0 C6.43823468 0.5625642 11.9559787 2.69524038 17.9375 5.0625 C18.90751953 5.43955078 19.87753906 5.81660156 20.87695312 6.20507812 C23.25397143 7.13012466 25.62811317 8.06189182 28 9 C28 9.33 28 9.66 28 10 C26.02 10 24.04 10 22 10 C22 9.34 22 8.68 22 8 C21.36191406 7.86722656 20.72382813 7.73445313 20.06640625 7.59765625 C18.82697266 7.33275391 18.82697266 7.33275391 17.5625 7.0625 C16.73878906 6.88847656 15.91507813 6.71445312 15.06640625 6.53515625 C13 6 13 6 12 5 C7.321037 5.5267131 7.321037 5.5267131 2.8125 6.8125 C2.214375 6.874375 1.61625 6.93625 1 7 C-1.25 5.0625 -1.25 5.0625 -3 3 C-2.01 2.67 -1.02 2.34 0 2 C0 1.34 0 0.68 0 0 Z " fill="#3374CF" transform="translate(159,307)"/>
<path d="M0 0 C1.62071411 0.0012085 1.62071411 0.0012085 3.27416992 0.00244141 C21.43190868 0.14210579 21.43190868 0.14210579 27.5 4.1875 C24.53 4.1875 21.56 4.1875 18.5 4.1875 C18.5 3.5275 18.5 2.8675 18.5 2.1875 C7.28 2.5175 -3.94 2.8475 -15.5 3.1875 C-15.5 2.5275 -15.5 1.8675 -15.5 1.1875 C-10.40946227 -0.30120014 -5.26226655 -0.00398808 0 0 Z " fill="#3574C9" transform="translate(131.5,302.8125)"/>
<path d="M0 0 C1.40741455 -0.0012085 1.40741455 -0.0012085 2.84326172 -0.00244141 C8.25047836 0.04057163 13.46226634 0.40162549 18.8125 1.1875 C18.8125 1.5175 18.8125 1.8475 18.8125 2.1875 C17.82330566 2.21255615 16.83411133 2.2376123 15.81494141 2.26342773 C12.15090596 2.35747787 8.48706115 2.45770429 4.82324219 2.55981445 C3.23637343 2.60317241 1.64945776 2.64484687 0.0625 2.68481445 C-2.21628979 2.74249632 -4.49484322 2.80619638 -6.7734375 2.87109375 C-7.84070572 2.89616249 -7.84070572 2.89616249 -8.92953491 2.92173767 C-12.68410817 2.98471937 -12.68410817 2.98471937 -16.1875 4.1875 C-17.89452735 4.25746014 -19.60418003 4.27190154 -21.3125 4.25 C-22.22257813 4.24097656 -23.13265625 4.23195313 -24.0703125 4.22265625 C-24.76898438 4.21105469 -25.46765625 4.19945313 -26.1875 4.1875 C-18.05131337 -0.19352357 -9.0248617 0.00748206 0 0 Z " fill="#D7702C" transform="translate(199.1875,72.8125)"/>
<path d="M0 0 C4.84442605 0.64211203 9.5606865 1.53286467 14.34375 2.55078125 C23.09412247 4.28257763 31.61260773 4.34475522 40.5 4.1875 C42.01691347 4.17239259 43.53384186 4.15871513 45.05078125 4.14648438 C48.70084086 4.11403454 52.35031777 4.06260451 56 4 C52.33321749 6.44452167 49.57170407 6.28929963 45.33203125 6.265625 C44.20156624 6.26849518 44.20156624 6.26849518 43.04826355 6.27142334 C41.4520128 6.27278411 39.85575095 6.2690952 38.25952148 6.26074219 C35.83877027 6.25011532 33.41877386 6.26060199 30.99804688 6.2734375 C29.44270672 6.27211443 27.88736702 6.26954899 26.33203125 6.265625 C25.61715042 6.26967346 24.90226959 6.27372192 24.16572571 6.27789307 C19.14623901 6.23206069 14.84681295 5.29913914 10 4 C6.66605561 3.8309611 6.66605561 3.8309611 4 4 C3.67 3.34 3.34 2.68 3 2 C2.01 1.34 1.02 0.68 0 0 Z " fill="#3772C3" transform="translate(231,299)"/>
<path d="M0 0 C2.82152715 3.52468376 4.98269186 7.32679708 7.1875 11.25 C7.55552734 11.8996875 7.92355469 12.549375 8.30273438 13.21875 C9.20428903 14.81110627 10.10248417 16.4053638 11 18 C9.35 18.33 7.7 18.66 6 19 C6.33 17.02 6.66 15.04 7 13 C6.01 12.67 5.02 12.34 4 12 C2.62804426 10.70644173 1.28817344 9.37701298 0 8 C-0.433125 9.1446875 -0.433125 9.1446875 -0.875 10.3125 C-2 13 -2 13 -4 16 C-7 11.25 -7 11.25 -7 9 C-4.525 9.495 -4.525 9.495 -2 10 C-2 9.01 -2 8.02 -2 7 C-1.34 7 -0.68 7 0 7 C0 4.69 0 2.38 0 0 Z " fill="#FDF2DF" transform="translate(94,235)"/>
<path d="M0 0 C0.33 0 0.66 0 1 0 C1.23074219 1.29292969 1.46148437 2.58585938 1.69921875 3.91796875 C3.42477765 13.23275811 5.31673563 21.92295276 9.046875 30.6640625 C10 33 10 33 10 35 C9.34 35 8.68 35 8 35 C7.566875 34.113125 7.13375 33.22625 6.6875 32.3125 C5.11209232 29.07669088 5.11209232 29.07669088 3.375 26.5 C1.77518719 23.59124944 1.3945539 21.2879492 1 18 C0.814375 16.948125 0.62875 15.89625 0.4375 14.8125 C-0.13065089 9.86147082 -0.08100435 4.97726727 0 0 Z " fill="#D86C20" transform="translate(73,202)"/>
<path d="M0 0 C0.33 0 0.66 0 1 0 C1.61544799 26.7956585 1.61544799 26.7956585 -2 39 C-2.21269531 39.78890625 -2.42539062 40.5778125 -2.64453125 41.390625 C-3.0672039 42.93535669 -3.52645827 44.47009595 -4 46 C-4.82638376 43.10765685 -5 41.11257569 -5 38 C-4.34 38 -3.68 38 -3 38 C-3.01160156 37.30132812 -3.02320313 36.60265625 -3.03515625 35.8828125 C-3.04417969 34.97273438 -3.05320312 34.06265625 -3.0625 33.125 C-3.07410156 32.22007812 -3.08570313 31.31515625 -3.09765625 30.3828125 C-3 28 -3 28 -2 26 C-1.77760311 24.04356527 -1.60784146 22.08102275 -1.46484375 20.1171875 C-1.37783203 18.95058594 -1.29082031 17.78398437 -1.20117188 16.58203125 C-1.11416016 15.35871094 -1.02714844 14.13539063 -0.9375 12.875 C-0.80118164 11.02841797 -0.80118164 11.02841797 -0.66210938 9.14453125 C-0.43764997 6.09660885 -0.21711458 3.04845297 0 0 Z " fill="#D77636" transform="translate(316,175)"/>
<path d="M0 0 C0 0.66 0 1.32 0 2 C2.64 2 5.28 2 8 2 C8 2.99 8 3.98 8 5 C10.64 4.67 13.28 4.34 16 4 C16 4.66 16 5.32 16 6 C16.84304687 6.19335938 17.68609375 6.38671875 18.5546875 6.5859375 C19.65039062 6.84632813 20.74609375 7.10671875 21.875 7.375 C22.96554688 7.63023437 24.05609375 7.88546875 25.1796875 8.1484375 C28 9 28 9 30 11 C24.230861 10.29549184 18.69497755 9.04473928 13.0625 7.625 C12.20720703 7.41617187 11.35191406 7.20734375 10.47070312 6.9921875 C5.14775866 5.66043633 0.10151235 4.02168856 -5 2 C-2 0 -2 0 0 0 Z " fill="#3F7CCE" transform="translate(208,344)"/>
<path d="M0 0 C6.53196705 0.60549133 12.34521526 2.67629969 18.5 4.875 C19.50675781 5.22691406 20.51351562 5.57882812 21.55078125 5.94140625 C26.78832106 7.78793077 31.92905817 9.73516924 37 12 C37 12.33 37 12.66 37 13 C31.49169043 13.72477758 28.11322893 11.69253481 23.4140625 9.1796875 C20.63147361 7.81991105 18.08298371 7.24339345 15 7 C15 6.34 15 5.68 15 5 C14.22914063 4.93941406 13.45828125 4.87882812 12.6640625 4.81640625 C11.15972656 4.69072266 11.15972656 4.69072266 9.625 4.5625 C8.62726563 4.48128906 7.62953125 4.40007812 6.6015625 4.31640625 C4 4 4 4 2 3 C2.33 2.34 2.66 1.68 3 1 C2.01 0.67 1.02 0.34 0 0 Z " fill="#FEEDD9" transform="translate(173,266)"/>
<path d="M0 0 C2.45090374 4.0941233 1.92573297 6.53873096 0.9140625 11.05078125 C-0.81054177 16.61520954 -3.4063148 21.79631712 -6 27 C-6.58984375 25.1328125 -6.58984375 25.1328125 -7 23 C-6.525625 22.29875 -6.05125 21.5975 -5.5625 20.875 C-3.85906128 17.74067275 -3.89316092 16.64307567 -4.0625 13.1875 C-4.26637791 7.74803735 -2.75032526 4.64117388 0 0 Z " fill="#DF6311" transform="translate(310,213)"/>
<path d="M0 0 C0.66 0.33 1.32 0.66 2 1 C1.67 1.66 1.34 2.32 1 3 C0.34 3 -0.32 3 -1 3 C-1.33 4.32 -1.66 5.64 -2 7 C-4.31 7 -6.62 7 -9 7 C-9 8.65 -9 10.3 -9 12 C-12.96 12 -16.92 12 -21 12 C-19.09718844 10.09718844 -17.78593025 9.28167005 -15.41015625 8.125 C-14.70826172 7.77953125 -14.00636719 7.4340625 -13.28320312 7.078125 C-12.55037109 6.72234375 -11.81753906 6.3665625 -11.0625 6 C-9.61498027 5.29351822 -8.1683312 4.58524911 -6.72265625 3.875 C-6.08078369 3.56304687 -5.43891113 3.25109375 -4.77758789 2.9296875 C-2.74569119 1.90695979 -2.74569119 1.90695979 0 0 Z " fill="#3675CE" transform="translate(325,286)"/>
<path d="M0 0 C-1.49097658 3.7952131 -3.75700849 5.61042731 -7 8 C-6.67 8.33 -6.34 8.66 -6 9 C-5.95919217 10.99958364 -5.95745644 13.00045254 -6 15 C-4.68 15.33 -3.36 15.66 -2 16 C-2.33 16.66 -2.66 17.32 -3 18 C-5.375 17.6875 -5.375 17.6875 -8 17 C-10.47606097 13.28590854 -10.30990767 11.52076128 -9.75 7.23046875 C-8.62248785 3.8772946 -6.62045987 2.5934793 -3.69140625 0.77734375 C-2 0 -2 0 0 0 Z " fill="#2472DB" transform="translate(96,313)"/>
<path d="M0 0 C4.23118279 0.73398069 5.61901641 1.96528547 8.296875 5.3984375 C9.35167504 10.38625162 9.0509097 14.141713 6.421875 18.5234375 C4.296875 20.3984375 4.296875 20.3984375 2.296875 20.3984375 C2.296875 19.4084375 2.296875 18.4184375 2.296875 17.3984375 C3.286875 17.0684375 4.276875 16.7384375 5.296875 16.3984375 C5.40502725 14.62894655 5.48253583 12.85756263 5.546875 11.0859375 C5.61648438 9.60673828 5.61648438 9.60673828 5.6875 8.09765625 C5.55563132 5.29226634 5.55563132 5.29226634 3.46484375 3.55859375 C-0.77640351 1.28895332 -5.19345017 2.33733754 -9.703125 3.3984375 C-6.73588961 -0.14340537 -4.44555415 -0.18886341 0 0 Z " fill="#3872CA" transform="translate(336.703125,282.6015625)"/>
<path d="M0 0 C0 3 0 3 -1 6 C-2.32 6 -3.64 6 -5 6 C-5 6.66 -5 7.32 -5 8 C-0.05 7.67 4.9 7.34 10 7 C5.02540629 10.31639581 -0.02452008 10.12219877 -5.875 10.0625 C-7.02742188 10.05347656 -8.17984375 10.04445313 -9.3671875 10.03515625 C-10.23601562 10.02355469 -11.10484375 10.01195312 -12 10 C-9.4031437 7.30956329 -6.76444405 4.9605923 -3.75 2.75 C-2.69039063 1.96882813 -2.69039063 1.96882813 -1.609375 1.171875 C-1.07828125 0.78515625 -0.5471875 0.3984375 0 0 Z " fill="#D57838" transform="translate(281,283)"/>
<path d="M0 0 C10.43039206 3.65333939 20.53943622 7.19610357 30 13 C30 13.99 30 14.98 30 16 C29.01 16 28.02 16 27 16 C26.67 14.68 26.34 13.36 26 12 C25.34 11.9175 24.68 11.835 24 11.75 C21.38994384 11.09748596 19.59889274 10.3558198 17.25 9.125 C13.62158647 7.22832929 9.98865116 5.90660197 6.078125 4.7109375 C3.93705259 3.97846536 1.99982515 3.0539619 0 2 C0 1.34 0 0.68 0 0 Z " fill="#FEEBD2" transform="translate(197,168)"/>
<path d="M0 0 C1.60875 0.2784375 1.60875 0.2784375 3.25 0.5625 C6.77348549 1.19740556 6.77348549 1.19740556 9.25 0.4375 C10.11625 0.2209375 10.11625 0.2209375 11 0 C11.99 0.66 12.98 1.32 14 2 C14 2.66 14 3.32 14 4 C13.34 4 12.68 4 12 4 C11.65629795 6.95508863 11.65629795 6.95508863 13.3125 8.38671875 C13.869375 8.81597656 14.42625 9.24523437 15 9.6875 C16.485 10.8321875 16.485 10.8321875 18 12 C17.67 12.66 17.34 13.32 17 14 C16.52691406 13.56429687 16.05382812 13.12859375 15.56640625 12.6796875 C11.17287821 8.72294295 6.68678494 5.32239454 1.6875 2.1640625 C1.130625 1.77992187 0.57375 1.39578125 0 1 C0 0.67 0 0.34 0 0 Z " fill="#DF6412" transform="translate(268,82)"/>
<path d="M0 0 C0.33 0 0.66 0 1 0 C1.02505615 0.7520874 1.0501123 1.5041748 1.07592773 2.27905273 C1.19150514 5.66539196 1.31440345 9.05142613 1.4375 12.4375 C1.47681641 13.62150391 1.51613281 14.80550781 1.55664062 16.02539062 C1.59853516 17.15009766 1.64042969 18.27480469 1.68359375 19.43359375 C1.72025146 20.47572021 1.75690918 21.51784668 1.79467773 22.59155273 C1.73515341 24.9499826 1.73515341 24.9499826 3 26 C3.07244053 28.01964199 3.08377188 30.04167124 3.0625 32.0625 C3.05347656 33.16722656 3.04445313 34.27195313 3.03515625 35.41015625 C3.02355469 36.26480469 3.01195313 37.11945313 3 38 C3.66 38.33 4.32 38.66 5 39 C4.505 41.475 4.505 41.475 4 44 C-1.60304693 35.5954296 -0.25775912 22.90444641 -0.125 13.1875 C-0.11597656 11.91068359 -0.10695313 10.63386719 -0.09765625 9.31835938 C-0.07438789 6.21203284 -0.04170155 3.10612428 0 0 Z " fill="#D86D24" transform="translate(84,172)"/>
<path d="M0 0 C0.66 0 1.32 0 2 0 C1.82984375 0.53625 1.6596875 1.0725 1.484375 1.625 C-0.21087264 7.10750301 -1.71769078 12.62540079 -3.125 18.1875 C-3.29547852 18.85201172 -3.46595703 19.51652344 -3.64160156 20.20117188 C-4.70540664 24.46062202 -5.44744016 28.65282 -6 33 C-6.33 33 -6.66 33 -7 33 C-7.27381003 23.73609397 -6.03972415 16.55109638 -2.73046875 7.93359375 C-1.7411256 5.31474424 -0.86516463 2.66204502 0 0 Z " fill="#D7681B" transform="translate(80,140)"/>
<path d="M0 0 C3.16115776 1.36983503 3.9927092 1.9890638 6 5 C6.82074015 9.61342359 6.66301762 12.99477973 4.0625 16.9375 C0.17315879 19.55685225 -3.41023229 20.33003391 -8 21 C-8 20.34 -8 19.68 -8 19 C-7.01 19 -6.02 19 -5 19 C-5 18.34 -5 17.68 -5 17 C-1.04 15.515 -1.04 15.515 3 14 C3.72256829 9.51866426 3.72256829 9.51866426 4 5 C3.34 5 2.68 5 2 5 C1.34 3.35 0.68 1.7 0 0 Z " fill="#3E74C8" transform="translate(302,332)"/>
<path d="M0 0 C3.83121737 2.55414491 4.38873826 4.56481211 5.484375 8.9296875 C6.20220312 12.73417651 6.33258885 14.41157358 4.375 17.875 C1.96527545 20.03106933 0.07305821 21.06100999 -3 22 C-3.66 21.34 -4.32 20.68 -5 20 C-3.824375 19.319375 -3.824375 19.319375 -2.625 18.625 C0.03698031 17.11571258 0.03698031 17.11571258 2 15 C2.66524275 10.60248621 2.45909208 6.93731299 0.5 2.9375 C-0.2425 1.9784375 -0.2425 1.9784375 -1 1 C-0.67 0.67 -0.34 0.34 0 0 Z " fill="#E3F5FD" transform="translate(305,331)"/>
<path d="M0 0 C0.66 0.33 1.32 0.66 2 1 C1.54625 1.598125 1.0925 2.19625 0.625 2.8125 C-2.31547856 6.4575994 -2.31547856 6.4575994 -2.8125 10.9375 C-1.96138221 14.14555938 -1.29544336 15.63996625 1 18 C3.72489473 18.69749589 3.72489473 18.69749589 6.6875 18.75 C7.68136719 18.80671875 8.67523438 18.8634375 9.69921875 18.921875 C10.45847656 18.94765625 11.21773437 18.9734375 12 19 C8.27277496 21.48481669 6.5255431 21.2697345 2.23046875 20.66015625 C-1.66575697 19.50698261 -3.05445469 17.45177394 -5 14 C-5.68442831 11.15481454 -5.73215344 8.83850257 -5 6 C-3.54107537 3.6254744 -1.99340876 1.99340876 0 0 Z " fill="#4677C4" transform="translate(57,298)"/>
<path d="M0 0 C0 3 0 3 -1 6 C-10.87448486 8.05294273 -19.45192483 8.76897704 -29 5 C-28.67 4.34 -28.34 3.68 -28 3 C-27.0925 3.33 -26.185 3.66 -25.25 4 C-18.36031598 5.92855252 -10.8159511 6.27913499 -4.3125 3.0625 C-1.25978266 1.33528716 -1.25978266 1.33528716 0 0 Z " fill="#FFF4E2" transform="translate(217,215)"/>
<path d="M0 0 C0.33 0.99 0.66 1.98 1 3 C-0.3140151 4.68193932 -1.65407903 6.34348188 -3 8 C-6.2858457 13.4764095 -9.15953234 18.86510782 -11 25 C-11.66 25.99 -12.32 26.98 -13 28 C-13.66 28 -14.32 28 -15 28 C-12.31079537 17.78102242 -6.50826059 8.2813444 0 0 Z " fill="#FDE8D0" transform="translate(96,116)"/>
<path d="M0 0 C0.99 0.33 1.98 0.66 3 1 C2.319375 1.53625 1.63875 2.0725 0.9375 2.625 C-1.30848341 4.44090148 -3.54002101 6.26588366 -5.75 8.125 C-6.34296875 8.62257813 -6.9359375 9.12015625 -7.546875 9.6328125 C-9.56562954 11.53217833 -9.98379966 12.60471176 -10.09765625 15.3828125 C-10.08605469 16.28773438 -10.07445312 17.19265625 -10.0625 18.125 C-10.05347656 19.03507812 -10.04445312 19.94515625 -10.03515625 20.8828125 C-10.02355469 21.58148438 -10.01195312 22.28015625 -10 23 C-10.66 23.33 -11.32 23.66 -12 24 C-12 19.38 -12 14.76 -12 10 C-11.34 10 -10.68 10 -10 10 C-9.67 8.68 -9.34 7.36 -9 6 C-8.01 6 -7.02 6 -6 6 C-6 5.34 -6 4.68 -6 4 C-4.02 3.34 -2.04 2.68 0 2 C0 1.34 0 0.68 0 0 Z " fill="#E0F5FD" transform="translate(63,291)"/>
<path d="M0 0 C0.66 0.33 1.32 0.66 2 1 C-2.47840909 4.42139328 -6.1003833 5.73184789 -11.75 6.25 C-12.44867188 6.32589355 -13.14734375 6.40178711 -13.8671875 6.47998047 C-19.24701436 7.02714459 -24.59402349 7.23391245 -30 7 C-29.34 6.01 -28.68 5.02 -28 4 C-25.3828125 3.8125 -25.3828125 3.8125 -22.125 4 C-14.25069849 4.20123215 -7.41979144 2.47326381 0 0 Z " fill="#FEF5E4" transform="translate(297,288)"/>
<path d="M0 0 C-6.8376326 4.76235669 -11.86362954 5.60557098 -20.0625 4.8125 C-21.02349609 4.74224609 -21.98449219 4.67199219 -22.97460938 4.59960938 C-25.31957454 4.42461197 -27.65933854 4.22442945 -30 4 C-30.33 3.34 -30.66 2.68 -31 2 C-29.91203125 2.03480469 -28.8240625 2.06960937 -27.703125 2.10546875 C-19.45427934 2.28518011 -12.19378445 2.02558666 -4.22265625 -0.44140625 C-2 -1 -2 -1 0 0 Z " fill="#D66B22" transform="translate(222,239)"/>
<path d="M0 0 C1.41441874 2.82883747 1.31900332 4.87376745 1 8 C-1 9.875 -1 9.875 -3 11 C-3.66 10.67 -4.32 10.34 -5 10 C-5.33 11.65 -5.66 13.3 -6 15 C-6.66 15 -7.32 15 -8 15 C-8 15.99 -8 16.98 -8 18 C-8.66 18 -9.32 18 -10 18 C-8.58750914 14.27183904 -6.90927622 10.81124868 -5 7.3125 C-4.484375 6.35988281 -3.96875 5.40726562 -3.4375 4.42578125 C-2 2 -2 2 0 0 Z " fill="#DB7029" transform="translate(77,107)"/>
<path d="M0 0 C0.66 0.99 1.32 1.98 2 3 C5.08365871 3.2502157 5.08365871 3.2502157 8 3 C8.33 3.99 8.66 4.98 9 6 C9.99 6.66 10.98 7.32 12 8 C4.74601342 7.52432875 -1.26812223 5.70533406 -8 3 C-8 2.67 -8 2.34 -8 2 C-6.865625 1.855625 -5.73125 1.71125 -4.5625 1.5625 C-1.19222799 1.38828522 -1.19222799 1.38828522 0 0 Z " fill="#DC6A1E" transform="translate(232,281)"/>
<path d="M0 0 C10.56 0 21.12 0 32 0 C32 0.33 32 0.66 32 1 C31.28046143 1.01458252 30.56092285 1.02916504 29.81958008 1.04418945 C11.16686816 1.23465059 11.16686816 1.23465059 -7 5 C-7.33 4.34 -7.66 3.68 -8 3 C-5.36 2.67 -2.72 2.34 0 2 C0 1.34 0 0.68 0 0 Z " fill="#5E8ED2" transform="translate(112,292)"/>
<path d="M0 0 C1 2 1 2 0.58203125 3.875 C-1.01955598 8.29765712 -1.7249286 9.93141707 -6 12 C-7.29920746 15.54588501 -7.29920746 15.54588501 -8 19 C-8.33 18.34 -8.66 17.68 -9 17 C-9.99 16.67 -10.98 16.34 -12 16 C-11.46890625 15.34773438 -10.9378125 14.69546875 -10.390625 14.0234375 C-6.7080143 9.46721477 -3.1294384 4.95494413 0 0 Z " fill="#FDECD8" transform="translate(327,261)"/>
<path d="M0 0 C0.66 0 1.32 0 2 0 C2.66 2.31 3.32 4.62 4 7 C4.33 6.34 4.66 5.68 5 5 C6.32 5.33 7.64 5.66 9 6 C8.01 7.485 8.01 7.485 7 9 C6.62430144 12.75698557 6.8357765 13.75366476 9 17 C8.625 19.1875 8.625 19.1875 8 21 C6.65757579 18.06657102 5.32765933 15.12763748 4 12.1875 C3.6184375 11.35412109 3.236875 10.52074219 2.84375 9.66210938 C2.4828125 8.85966797 2.121875 8.05722656 1.75 7.23046875 C1.41484375 6.49207764 1.0796875 5.75368652 0.734375 4.99291992 C0 3 0 3 0 0 Z " fill="#D8691F" transform="translate(61,235)"/>
<path d="M0 0 C0.33 0 0.66 0 1 0 C1.32105822 3.53164047 1.48213712 5.35715051 -0.6875 8.25 C-3.08593323 10.06503055 -5.17243382 11.01035184 -8 12 C-9.33910468 12.65499685 -10.67347993 13.31987742 -12 14 C-10.57757077 12.34049923 -9.15484775 10.68126579 -7.73046875 9.0234375 C-6.5812117 7.67961097 -5.43791326 6.33066453 -4.30078125 4.9765625 C-3.76839844 4.34492188 -3.23601562 3.71328125 -2.6875 3.0625 C-1.95080078 2.18271484 -1.95080078 2.18271484 -1.19921875 1.28515625 C-0.80347656 0.86105469 -0.40773438 0.43695313 0 0 Z " fill="#DD6F23" transform="translate(300,264)"/>
<path d="M0 0 C3.12492251 -0.05791844 6.24970766 -0.09356746 9.375 -0.125 C10.26445312 -0.14175781 11.15390625 -0.15851563 12.0703125 -0.17578125 C12.92109375 -0.18222656 13.771875 -0.18867187 14.6484375 -0.1953125 C15.82672119 -0.21102295 15.82672119 -0.21102295 17.02880859 -0.22705078 C19 0 19 0 21 2 C19.9378125 2.04898438 18.875625 2.09796875 17.78125 2.1484375 C7.25498713 2.68360215 7.25498713 2.68360215 -3 5 C-3 4.34 -3 3.68 -3 3 C-2.34 3 -1.68 3 -1 3 C-0.67 2.01 -0.34 1.02 0 0 Z " fill="#DE762D" transform="translate(189,124)"/>
<path d="M0 0 C0.99 0 1.98 0 3 0 C3.66 1.32 4.32 2.64 5 4 C5.66 4 6.32 4 7 4 C8 9.75 8 9.75 8 12 C10.31 12.33 12.62 12.66 15 13 C15 13.33 15 13.66 15 14 C11.10243355 14.4532054 9.51578599 14.40526042 6.375 11.9375 C0 4.05263158 0 4.05263158 0 0 Z " fill="#DA6F27" transform="translate(71,257)"/>
<path d="M0 0 C2.18703385 -0.37907282 2.18703385 -0.37907282 4 -1 C1.67350413 1.50719458 -0.82681521 3.32183601 -3.6875 5.1875 C-4.49574219 5.71730469 -5.30398437 6.24710937 -6.13671875 6.79296875 C-6.75160156 7.19128906 -7.36648437 7.58960937 -8 8 C-8.33 7.01 -8.66 6.02 -9 5 C-8.34 5 -7.68 5 -7 5 C-7 4.34 -7 3.68 -7 3 C-7.66 3 -8.32 3 -9 3 C-9 2.34 -9 1.68 -9 1 C-5.43776395 -0.68216702 -3.74197056 -1.08637855 0 0 Z " fill="#E06615" transform="translate(130,82)"/>
<path d="M0 0 C10.395 3.465 10.395 3.465 21 7 C17.44678111 7.88830472 16.28534333 8.05030369 12.9375 7.4375 C8.95214345 6.56737675 8.95214345 6.56737675 6 9 C5.67 7.35 5.34 5.7 5 4 C2.03 3.505 2.03 3.505 -1 3 C-0.67 2.01 -0.34 1.02 0 0 Z " fill="#3572CA" transform="translate(203,323)"/>
<path d="M0 0 C6.78982507 0.37035409 11.26884891 2.40476401 17 6 C17 6.66 17 7.32 17 8 C19.475 8.495 19.475 8.495 22 9 C22 9.99 22 10.98 22 12 C21.41879395 11.70867187 20.83758789 11.41734375 20.23876953 11.1171875 C18.22308041 10.11132126 16.20259987 9.11623218 14.1796875 8.125 C12.74473837 7.41677465 11.30984406 6.70843821 9.875 6 C9.14667969 5.64421875 8.41835937 5.2884375 7.66796875 4.921875 C6.97058594 4.57640625 6.27320313 4.2309375 5.5546875 3.875 C4.92030762 3.56304687 4.28592773 3.25109375 3.63232422 2.9296875 C2 2 2 2 0 0 Z " fill="#D66E29" transform="translate(209,172)"/>
<path d="M0 0 C5.72637218 0.62093192 10.86807668 2.08719476 16.3125 3.9375 C17.12267578 4.20240234 17.93285156 4.46730469 18.76757812 4.74023438 C19.54166016 4.99998047 20.31574219 5.25972656 21.11328125 5.52734375 C22.16189331 5.87913696 22.16189331 5.87913696 23.23168945 6.23803711 C25 7 25 7 27 9 C24.125 9.125 24.125 9.125 21 9 C20.34 8.34 19.68 7.68 19 7 C16.9398267 6.24593104 14.85118556 5.56833539 12.75 4.9375 C11.63109375 4.59589844 10.5121875 4.25429688 9.359375 3.90234375 C6.24418272 3.06558861 3.1889874 2.46868451 0 2 C0 1.34 0 0.68 0 0 Z " fill="#3B77C6" transform="translate(166,275)"/>
<path d="M0 0 C1.23588303 2.80882507 0.94141052 4.2343579 0.1875 7.25 C-2.25051029 12.48888723 -7.20103399 16.00976282 -12 19 C-14.8203125 19.7265625 -14.8203125 19.7265625 -17 20 C-16.29875 19.443125 -15.5975 18.88625 -14.875 18.3125 C-13.92625 17.549375 -12.9775 16.78625 -12 16 C-10.4840625 14.824375 -10.4840625 14.824375 -8.9375 13.625 C-4.56081589 9.71392058 -1.94587734 5.51331913 0 0 Z " fill="#D56F2C" transform="translate(240,218)"/>
<path d="M0 0 C0.99 0.33 1.98 0.66 3 1 C3 1.99 3 2.98 3 4 C3.99 4.33 4.98 4.66 6 5 C4.73147606 6.60599349 3.460089 8.20972575 2.1875 9.8125 C1.12595703 11.15248047 1.12595703 11.15248047 0.04296875 12.51953125 C-1.56411377 14.47076911 -3.17040423 16.26274976 -5 18 C-5.25 15.6875 -5.25 15.6875 -5 13 C-3.70264493 11.95374591 -2.36733028 10.95298777 -1 10 C-0.20376178 7.90584196 -0.20376178 7.90584196 0 6 C0.66 6 1.32 6 2 6 C1.34 4.02 0.68 2.04 0 0 Z " fill="#DA6B21" transform="translate(98,102)"/>
<path d="M0 0 C5.75 -0.125 5.75 -0.125 8 1 C8 1.66 8 2.32 8 3 C8.680625 3.103125 9.36125 3.20625 10.0625 3.3125 C13.67054778 4.15693671 16.65617122 5.39239001 20 7 C20.33 7.66 20.66 8.32 21 9 C13.81783567 6.72564796 6.9241798 3.96415819 0 1 C0 0.67 0 0.34 0 0 Z " fill="#4077C9" transform="translate(178,300)"/>
<path d="M0 0 C3.3 0 6.6 0 10 0 C10 0.33 10 0.66 10 1 C8.453125 1.2475 8.453125 1.2475 6.875 1.5 C1.85019605 2.87133143 -0.32917848 6.79321153 -3 11 C-3.33 10.01 -3.66 9.02 -4 8 C-3.67 7.67 -3.34 7.34 -3 7 C-3.66 6.67 -4.32 6.34 -5 6 C-4.1875 4.0625 -4.1875 4.0625 -3 2 C-2.01 1.67 -1.02 1.34 0 1 C0 0.67 0 0.34 0 0 Z " fill="#E16610" transform="translate(166,210)"/>
<path d="M0 0 C4 4 4 4 4.49609375 6 C4.3987513 9.32262216 4.25639304 11.5116323 2.6875 14.5 C1 16 1 16 -2 16 C-1.67 14.68 -1.34 13.36 -1 12 C-0.01 12 0.98 12 2 12 C1.34 8.04 0.68 4.08 0 0 Z " fill="#D86C21" transform="translate(216,200)"/>
<path d="M0 0 C-5.84372494 4.98435363 -10.18127928 7.46912324 -18 7 C-18 6.67 -18 6.34 -18 6 C-16.6696875 5.62875 -16.6696875 5.62875 -15.3125 5.25 C-11.94054127 4.19748261 -11.94054127 4.19748261 -9.5625 1.875 C-6.23681771 -0.55842607 -4.02459154 -0.31565424 0 0 Z " fill="#DA681A" transform="translate(262,283)"/>
<path d="M0 0 C0.66 0.33 1.32 0.66 2 1 C0.92646259 2.4655595 -0.1592554 3.92220152 -1.25 5.375 C-1.85328125 6.18710937 -2.4565625 6.99921875 -3.078125 7.8359375 C-4.97181904 9.96826778 -6.38328518 10.94636704 -9 12 C-9 10.35 -9 8.7 -9 7 C-8.34 6.67 -7.68 6.34 -7 6 C-6.34 6.33 -5.68 6.66 -5 7 C-4.9175 6.401875 -4.835 5.80375 -4.75 5.1875 C-3.79544128 2.4033704 -2.42867729 1.56688858 0 0 Z " fill="#DB6A1E" transform="translate(317,272)"/>
<path d="M0 0 C2.33058639 3.49587959 3.19132 6.92041315 4.1875 10.9375 C4.47270508 12.01161133 4.47270508 12.01161133 4.76367188 13.10742188 C5.6919477 16.80339833 6.1215946 19.36551019 5 23 C2.86413322 19.79619983 2.76867825 18.98060033 2.875 15.3125 C2.89304687 14.50425781 2.91109375 13.69601563 2.9296875 12.86328125 C2.96449219 11.94095703 2.96449219 11.94095703 3 11 C2.34 11 1.68 11 1 11 C0.67 7.37 0.34 3.74 0 0 Z " fill="#D97532" transform="translate(310,149)"/>
<path d="M0 0 C1.32 1.32 2.64 2.64 4 4 C3.01 4.495 3.01 4.495 2 5 C2 6.32 2 7.64 2 9 C1.01 9.495 1.01 9.495 0 10 C-0.65555119 12.52733235 -0.65555119 12.52733235 -1 15 C-3.31 15.33 -5.62 15.66 -8 16 C-7.59007812 15.52949219 -7.18015625 15.05898437 -6.7578125 14.57421875 C-6.21898437 13.95160156 -5.68015625 13.32898438 -5.125 12.6875 C-4.59132812 12.07261719 -4.05765625 11.45773438 -3.5078125 10.82421875 C-0.33822313 6.98950829 0.21839098 4.91379695 0 0 Z " fill="#DE6720" transform="translate(236,137)"/>
<path d="M0 0 C0 0.66 0 1.32 0 2 C-0.99 2 -1.98 2 -3 2 C-3.226875 2.5775 -3.45375 3.155 -3.6875 3.75 C-5.34848222 6.59739809 -7.31524561 8.12067193 -10 10 C-10.66 10 -11.32 10 -12 10 C-12 10.66 -12 11.32 -12 12 C-12.99 12.33 -13.98 12.66 -15 13 C-13.61811925 8.30325054 -11.46448756 6.45742486 -7.5 3.6875 C-6.5203125 2.99011719 -5.540625 2.29273438 -4.53125 1.57421875 C-2 0 -2 0 0 0 Z " fill="#FDEBD2" transform="translate(186,129)"/>
<path d="M0 0 C-3.49587959 2.33058639 -6.92041315 3.19132 -10.9375 4.1875 C-11.65357422 4.37763672 -12.36964844 4.56777344 -13.10742188 4.76367188 C-16.80339833 5.6919477 -19.36551019 6.1215946 -23 5 C-23 4.67 -23 4.34 -23 4 C-21.02 3.67 -19.04 3.34 -17 3 C-17 2.67 -17 2.34 -17 2 C-16.06027344 1.90912109 -16.06027344 1.90912109 -15.1015625 1.81640625 C-14.28429687 1.73261719 -13.46703125 1.64882813 -12.625 1.5625 C-11.81289063 1.48128906 -11.00078125 1.40007812 -10.1640625 1.31640625 C-1.01028037 -0.02196262 -1.01028037 -0.02196262 0 0 Z " fill="#427DCC" transform="translate(307,319)"/>
<path d="M0 0 C3.67758005 3.28355362 5.81389118 6.62778237 8 11 C7.67 11.66 7.34 12.32 7 13 C6.01 12.34 5.02 11.68 4 11 C3.67 11.99 3.34 12.98 3 14 C2.34 13.34 1.68 12.68 1 12 C1.165 10.906875 1.33 9.81375 1.5 8.6875 C2.01428825 4.89462412 1.71594339 3.33094893 0 0 Z " fill="#DC6818" transform="translate(322,106)"/>
<path d="M0 0 C2.74341518 0.45770675 5.42742471 0.83091338 8.1875 1.125 C8.93708984 1.21136719 9.68667969 1.29773438 10.45898438 1.38671875 C12.30517412 1.59838382 14.15249344 1.80015464 16 2 C16 2.33 16 2.66 16 3 C7.28296246 3.48032656 -0.54704214 2.07313419 -9 0 C-9 -0.33 -9 -0.66 -9 -1 C-3.375 -2.25 -3.375 -2.25 0 0 Z " fill="#F9D6B6" transform="translate(192,239)"/>
<path d="M0 0 C0 0.66 0 1.32 0 2 C-0.474375 2.45375 -0.94875 2.9075 -1.4375 3.375 C-3.22093737 5.22977487 -3.5691993 6.50135592 -4 9 C-5.32 9.33 -6.64 9.66 -8 10 C-7.67 8.68 -7.34 7.36 -7 6 C-7.99 5.67 -8.98 5.34 -10 5 C-8.71186658 4.16121545 -7.41936744 3.32913217 -6.125 2.5 C-5.40570313 2.0359375 -4.68640625 1.571875 -3.9453125 1.09375 C-2 0 -2 0 0 0 Z " fill="#FCEFDD" transform="translate(143,77)"/>
<path d="M0 0 C0 0.66 0 1.32 0 2 C-1.32 2.33 -2.64 2.66 -4 3 C-4 3.66 -4 4.32 -4 5 C-5.65 5.66 -7.3 6.32 -9 7 C-9 7.33 -9 7.66 -9 8 C-11.31 8 -13.62 8 -16 8 C-13.10414095 5.70351643 -10.1827969 3.95652443 -6.875 2.3125 C-5.57175781 1.65701172 -5.57175781 1.65701172 -4.2421875 0.98828125 C-2 0 -2 0 0 0 Z " fill="#3D7CCA" transform="translate(91,279)"/>
<path d="M0 0 C0.33 1.65 0.66 3.3 1 5 C-0.175625 4.01 -0.175625 4.01 -1.375 3 C-5.61192232 0.10748572 -10.06675416 0.64901808 -15 1 C-14.67 0.01 -14.34 -0.98 -14 -2 C-8.87160006 -3.81975482 -4.82315618 -1.8599099 0 0 Z " fill="#E4F8FD" transform="translate(344,283)"/>
<path d="M0 0 C3.42931954 3.7559214 4.56429083 8.23466745 6 13 C5.34 13 4.68 13 4 13 C4 12.01 4 11.02 4 10 C2.68 10.33 1.36 10.66 0 11 C-1.125 6.25 -1.125 6.25 0 4 C0 2.68 0 1.36 0 0 Z " fill="#FCEDDC" transform="translate(313,131)"/>
<path d="M0 0 C1.35931641 0.32484375 1.35931641 0.32484375 2.74609375 0.65625 C9.66187274 2.23699948 15.90766536 3.3668449 23 3 C22.67 3.66 22.34 4.32 22 5 C19.8203125 5.484375 19.8203125 5.484375 17.125 5.75 C15.79855469 5.89695312 15.79855469 5.89695312 14.4453125 6.046875 C12 6 12 6 9 4 C6.72461677 3.33386665 6.72461677 3.33386665 4.3125 2.875 C3.50425781 2.70742188 2.69601563 2.53984375 1.86328125 2.3671875 C1.24839844 2.24601562 0.63351563 2.12484375 0 2 C0 1.34 0 0.68 0 0 Z " fill="#FDE6CC" transform="translate(230,286)"/>
<path d="M0 0 C0.66 0 1.32 0 2 0 C3.72293135 4.46334184 4.22240791 8.10201231 4.125 12.875 C4.10695313 14.02742187 4.08890625 15.17984375 4.0703125 16.3671875 C4.03550781 17.67042969 4.03550781 17.67042969 4 19 C3.67 19 3.34 19 3 19 C2.49521515 16.58424393 1.99602358 14.16755639 1.5 11.75 C1.35691406 11.06808594 1.21382813 10.38617188 1.06640625 9.68359375 C0.38748951 6.35366879 0 3.41667449 0 0 Z " fill="#DA6C22" transform="translate(323,153)"/>
<path d="M0 0 C1.32 0.33 2.64 0.66 4 1 C3.195625 1.45375 2.39125 1.9075 1.5625 2.375 C-1.08856572 3.74725665 -1.08856572 3.74725665 -2 6 C-2.35512837 11.4157076 -2.36699949 14.51066735 1 19 C0.01 19 -0.98 19 -2 19 C-3.8466683 15.85409472 -4.24774283 13.56849948 -4.1875 9.9375 C-4.18105469 9.08027344 -4.17460937 8.22304687 -4.16796875 7.33984375 C-4 5 -4 5 -3 2 C-2.01 2 -1.02 2 0 2 C0 1.34 0 0.68 0 0 Z " fill="#FEECD2" transform="translate(191,147)"/>
<path d="M0 0 C0.66 0.33 1.32 0.66 2 1 C1.67 1.99 1.34 2.98 1 4 C0.0925 4.28875 -0.815 4.5775 -1.75 4.875 C-5.5592138 6.19357401 -7.34177767 8.02904563 -10 11 C-10.99 10.67 -11.98 10.34 -13 10 C-9.23156953 5.87827917 -5.11095695 2.36931779 0 0 Z " fill="#4076CA" transform="translate(72,288)"/>
<path d="M0 0 C1.44349674 0.73839246 2.87959051 1.49126643 4.3125 2.25 C5.11300781 2.66765625 5.91351563 3.0853125 6.73828125 3.515625 C9.13190204 5.08656783 10.43301591 6.6267037 12 9 C11.01 9.33 10.02 9.66 9 10 C6.61438008 8.52652887 5.26132231 7.52264461 4 5 C3.01 4.67 2.02 4.34 1 4 C1.33 3.34 1.66 2.68 2 2 C1.34 2 0.68 2 0 2 C0 1.34 0 0.68 0 0 Z " fill="#E26718" transform="translate(264,92)"/>
<path d="M0 0 C1.25541557 3.76624671 0.37061958 5.37188934 -1 9 C-1.66 8.34 -2.32 7.68 -3 7 C-3.763125 7.825 -4.52625 8.65 -5.3125 9.5 C-8 12 -8 12 -11 12 C-9.88200014 10.66079162 -8.75538103 9.32877444 -7.625 8 C-6.99851562 7.2575 -6.37203125 6.515 -5.7265625 5.75 C-5.15679687 5.1725 -4.58703125 4.595 -4 4 C-3.34 4 -2.68 4 -2 4 C-1.34 2.68 -0.68 1.36 0 0 Z " fill="#DB7128" transform="translate(97,83)"/>
<path d="M0 0 C0.66 0.33 1.32 0.66 2 1 C1.896875 2.051875 1.79375 3.10375 1.6875 4.1875 C1.63878717 8.12436693 1.63878717 8.12436693 4.375 10.8125 C5.24125 11.534375 6.1075 12.25625 7 13 C7.66 13.66 8.32 14.32 9 15 C6.25 14.875 6.25 14.875 3 14 C0.23902119 10.8757345 -0.91198542 8.9153516 -1.3125 4.75 C-1 2 -1 2 0 0 Z " fill="#E7F7FD" transform="translate(84,321)"/>
<path d="M0 0 C0 0.33 0 0.66 0 1 C-2.64 1 -5.28 1 -8 1 C-8 1.66 -8 2.32 -8 3 C-11.63 3 -15.26 3 -19 3 C-15.94925539 0.96617026 -14.1697702 0.45832799 -10.625 -0.1875 C-9.68914062 -0.36667969 -8.75328125 -0.54585938 -7.7890625 -0.73046875 C-4.93375519 -1.00640181 -2.76459104 -0.70874061 0 0 Z " fill="#407CCE" transform="translate(123,272)"/>
<path d="M0 0 C3.74123976 4.2954975 6.34151874 8.99900452 9 14 C7.35 14.33 5.7 14.66 4 15 C4.33 13.02 4.66 11.04 5 9 C4.01 8.67 3.02 8.34 2 8 C-0.1519437 4.77208445 -0.20086443 3.71599191 0 0 Z " fill="#FCEBD5" transform="translate(96,239)"/>
<path d="M0 0 C3.81049403 0.54435629 5.63979378 1.98870241 8 5 C8.75 8.25 8.75 8.25 9 11 C9.66 11 10.32 11 11 11 C10.67 12.32 10.34 13.64 10 15 C8.51924614 12.87609042 7.04033944 10.75093595 5.5625 8.625 C5.14162109 8.02171875 4.72074219 7.4184375 4.28710938 6.796875 C1.11328125 2.2265625 1.11328125 2.2265625 0 0 Z " fill="#FDECD1" transform="translate(316,97)"/>
<path d="M0 0 C4.88081725 4.14869467 4.88081725 4.14869467 5.4375 8.125 C5 11 5 11 3 14 C2.34 14 1.68 14 1 14 C1 12.68 1 11.36 1 10 C1.66 10 2.32 10 3 10 C3 8.68 3 7.36 3 6 C2.34 6 1.68 6 1 6 C0.67 4.02 0.34 2.04 0 0 Z " fill="#DB752F" transform="translate(91,253)"/>
<path d="M0 0 C2.015625 1.17578125 2.015625 1.17578125 4 3 C4.171875 5.48046875 4.171875 5.48046875 3.75 8.1875 C3.62109375 9.08855469 3.4921875 9.98960937 3.359375 10.91796875 C3.24078125 11.60503906 3.1221875 12.29210937 3 13 C1.12396022 10.18594033 0.50907198 8.59075334 -0.1875 5.375 C-0.36667969 4.57835937 -0.54585937 3.78171875 -0.73046875 2.9609375 C-0.81941406 2.31382812 -0.90835938 1.66671875 -1 1 C-0.67 0.67 -0.34 0.34 0 0 Z " fill="#E06212" transform="translate(58,222)"/>
<path d="M0 0 C4.84659077 0.59104765 8.60748167 1.97944157 13 4 C13 4.66 13 5.32 13 6 C14.32 6 15.64 6 17 6 C16.67 6.99 16.34 7.98 16 9 C10.72 6.36 5.44 3.72 0 1 C0 0.67 0 0.34 0 0 Z " fill="#D86E27" transform="translate(250,73)"/>
<path d="M0 0 C0 0.66 0 1.32 0 2 C-5.28 2 -10.56 2 -16 2 C-15.67 1.34 -15.34 0.68 -15 0 C-9.88129357 -1.40764427 -5.16172083 -0.7455819 0 0 Z " fill="#DE620C" transform="translate(208,61)"/>
<path d="M0 0 C0.33 0 0.66 0 1 0 C3.46254726 6.61809577 3.18935472 13.00439516 3 20 C0.52954197 16.18384532 0.56168088 12.15255752 0.375 7.75 C0.33632813 7.00492188 0.29765625 6.25984375 0.2578125 5.4921875 C0.16394892 3.6618476 0.08090282 1.83095857 0 0 Z " fill="#D97731" transform="translate(52,192)"/>
<path d="M0 0 C0.33 0.99 0.66 1.98 1 3 C0.01 3.33 -0.98 3.66 -2 4 C-2.0825 4.763125 -2.165 5.52625 -2.25 6.3125 C-3.14615794 9.52373261 -4.21611025 10.29374499 -7 12 C-7.66 11.67 -8.32 11.34 -9 11 C-6.03 7.37 -3.06 3.74 0 0 Z " fill="#DC742F" transform="translate(112,112)"/>
<path d="M0 0 C3.22973344 1.47813887 5.88997098 3.31746497 8.6875 5.5 C9.47511719 6.1084375 10.26273437 6.716875 11.07421875 7.34375 C13 9 13 9 14 11 C11.33333333 9.66666667 8.66666667 8.33333333 6 7 C5.67 7.66 5.34 8.32 5 9 C5 7.35 5 5.7 5 4 C4.360625 3.896875 3.72125 3.79375 3.0625 3.6875 C2.381875 3.460625 1.70125 3.23375 1 3 C0.67 2.01 0.34 1.02 0 0 Z " fill="#D76720" transform="translate(284,69)"/>
<path d="M0 0 C0.99 0.33 1.98 0.66 3 1 C-2.55858095 5.94096084 -7.8153535 5.4185231 -15 5 C-15.33 4.34 -15.66 3.68 -16 3 C-13.02148438 3.04882812 -13.02148438 3.04882812 -10.04296875 3.09765625 C-7.79694539 3.08263217 -7.79694539 3.08263217 -5 2 C-4.01 2.33 -3.02 2.66 -2 3 C-2 2.34 -2 1.68 -2 1 C-1.34 0.67 -0.68 0.34 0 0 Z " fill="#3775D2" transform="translate(73,312)"/>
<path d="M0 0 C-2.10171867 0.8394882 -4.20646625 1.67139656 -6.3125 2.5 C-7.48425781 2.9640625 -8.65601563 3.428125 -9.86328125 3.90625 C-13 5 -13 5 -16 5 C-16 4.01 -16 3.02 -16 2 C-13.69 2 -11.38 2 -9 2 C-9 1.34 -9 0.68 -9 0 C-3.375 -1.125 -3.375 -1.125 0 0 Z " fill="#D66A26" transform="translate(307,285)"/>
<path d="M0 0 C0.33 0 0.66 0 1 0 C1.82200425 6.24723226 -1.07448606 10.71317837 -4 16 C-4.66 16 -5.32 16 -6 16 C-4.25192871 10.53262809 -2.34205919 5.24175152 0 0 Z " fill="#DB722B" transform="translate(66,125)"/>
<path d="M0 0 C6.49142565 0.42335385 11.33492989 2.91099799 17 6 C17 6.33 17 6.66 17 7 C13.14354879 7.22036864 10.50776784 6.60355101 7 5 C7 4.34 7 3.68 7 3 C4.69 2.34 2.38 1.68 0 1 C0 0.67 0 0.34 0 0 Z " fill="#FFECD1" transform="translate(214,127)"/>
<path d="M0 0 C1.72945653 0.14235457 3.45855654 0.28904382 5.1875 0.4375 C6.63189453 0.55931641 6.63189453 0.55931641 8.10546875 0.68359375 C10.78649602 0.97666151 13.3662986 1.42703754 16 2 C13.08235 3.9451 11.37462715 4.45276317 8 5 C8 4.34 8 3.68 8 3 C5.36 2.67 2.72 2.34 0 2 C0 1.34 0 0.68 0 0 Z " fill="#FEF0DC" transform="translate(216,65)"/>
<path d="M0 0 C2.60423592 -0.02697137 5.20819244 -0.04682489 7.8125 -0.0625 C8.55048828 -0.07087891 9.28847656 -0.07925781 10.04882812 -0.08789062 C13.29922068 -0.10259828 15.89404895 -0.03531702 19 1 C19 1.66 19 2.32 19 3 C12.73 2.34 6.46 1.68 0 1 C0 0.67 0 0.34 0 0 Z " fill="#FDE2C8" transform="translate(212,43)"/>
<path d="M0 0 C3.80675057 0.72509535 5.63113759 2.70341035 8.296875 5.4375 C7.966875 6.0975 7.636875 6.7575 7.296875 7.4375 C6.430625 6.6125 5.564375 5.7875 4.671875 4.9375 C2.26234822 2.93050593 1.46737666 2.45837775 -1.765625 2.0625 C-4.45189364 2.40542791 -7.06709157 2.81725684 -9.703125 3.4375 C-6.73070669 -0.11052947 -4.44488637 -0.11620618 0 0 Z " fill="#4D7CC1" transform="translate(336.703125,282.5625)"/>
<path d="M0 0 C1.90389849 2.85584773 2.69462177 4.9311762 3.625 8.1875 C3.88539063 9.08855469 4.14578125 9.98960937 4.4140625 10.91796875 C4.60742188 11.60503906 4.80078125 12.29210937 5 13 C4.34 12.67 3.68 12.34 3 12 C3 11.01 3 10.02 3 9 C1.68 9.33 0.36 9.66 -1 10 C-0.67 6.7 -0.34 3.4 0 0 Z " fill="#E07126" transform="translate(339,138)"/>
<path d="M0 0 C6.6 1.98 13.2 3.96 20 6 C20 6.33 20 6.66 20 7 C14.14023367 6.48455759 8.68662136 5.4964793 3 4 C2.34 4 1.68 4 1 4 C0.67 2.68 0.34 1.36 0 0 Z " fill="#DDF4FE" transform="translate(202,345)"/>
<path d="M0 0 C-4.62 2.64 -9.24 5.28 -14 8 C-14.33 7.34 -14.66 6.68 -15 6 C-14.34 6 -13.68 6 -13 6 C-13 5.34 -13 4.68 -13 4 C-10.75 2.5 -10.75 2.5 -8 1 C-6.9790625 0.38125 -6.9790625 0.38125 -5.9375 -0.25 C-4 -1 -4 -1 0 0 Z " fill="#DCF4FE" transform="translate(81,284)"/>
<path d="M0 0 C1.90389849 2.85584773 2.69462177 4.9311762 3.625 8.1875 C4.01558594 9.53908203 4.01558594 9.53908203 4.4140625 10.91796875 C4.60742188 11.60503906 4.80078125 12.29210937 5 13 C2.5 12.125 2.5 12.125 0 10 C-0.46087248 6.63291991 -0.28526928 3.37885612 0 0 Z " fill="#FCE3CC" transform="translate(59,232)"/>
<path d="M0 0 C0.66 0.33 1.32 0.66 2 1 C-5 8 -5 8 -7.625 8.125 C-8.40875 8.08375 -9.1925 8.0425 -10 8 C-6.97727468 4.74475735 -3.74281699 2.38179263 0 0 Z " fill="#DD6C20" transform="translate(138,90)"/>
<path d="M0 0 C1.65 0 3.3 0 5 0 C-5.10526316 8 -5.10526316 8 -9 8 C-9 6 -9 6 -7.875 4.4375 C-5.36053022 2.50973984 -3.10454033 2.34494893 0 2 C0 1.34 0 0.68 0 0 Z " fill="#407CC8" transform="translate(108,327)"/>
<path d="M0 0 C5.72398793 0.74660712 11.34853777 1.82877141 17 3 C17 3.66 17 4.32 17 5 C14.8535247 4.88655624 12.70779408 4.75893655 10.5625 4.625 C9.36753906 4.55539062 8.17257813 4.48578125 6.94140625 4.4140625 C5.97074219 4.27742188 5.00007812 4.14078125 4 4 C3.67 3.34 3.34 2.68 3 2 C2.01 1.34 1.02 0.68 0 0 Z " fill="#3D77CA" transform="translate(231,299)"/>
<path d="M0 0 C0.66 0 1.32 0 2 0 C0.68315519 4.60895683 -1.15198745 8.14140235 -4 12 C-4.33 12 -4.66 12 -5 12 C-5 10.02 -5 8.04 -5 6 C-4.01 6 -3.02 6 -2 6 C-1.7834375 5.071875 -1.7834375 5.071875 -1.5625 4.125 C-1 2 -1 2 0 0 Z " fill="#D96921" transform="translate(331,250)"/>
<path d="M0 0 C0.33 0 0.66 0 1 0 C1 2.64 1 5.28 1 8 C0.01 8.33 -0.98 8.66 -2 9 C-2.33 10.65 -2.66 12.3 -3 14 C-3.66 14 -4.32 14 -5 14 C-3.45730076 9.27934033 -1.92205381 4.58335908 0 0 Z " fill="#FCE4C6" transform="translate(339,236)"/>
<path d="M0 0 C0.66 0 1.32 0 2 0 C0.6302836 3.99500618 -1.25722422 6.80009492 -4 10 C-4.33 7.36 -4.66 4.72 -5 2 C-2.525 2.495 -2.525 2.495 0 3 C0 2.01 0 1.02 0 0 Z " fill="#DE6817" transform="translate(301,240)"/>
<path d="M0 0 C2.97 0.495 2.97 0.495 6 1 C4.58970126 3.82059747 2.92108419 3.98101714 0 5 C-1.32676508 5.35858516 -2.65835921 5.7018576 -4 6 C-4 5.01 -4 4.02 -4 3 C-3.01 2.67 -2.02 2.34 -1 2 C-0.67 1.34 -0.34 0.68 0 0 Z " fill="#E06713" transform="translate(212,148)"/>
<path d="M0 0 C1.32 0.33 2.64 0.66 4 1 C2.8758824 2.29243468 1.75067408 3.58392075 0.625 4.875 C-0.00148438 5.59429687 -0.62796875 6.31359375 -1.2734375 7.0546875 C-2.47426834 8.4076598 -3.7208345 9.7208345 -5 11 C-5.1875 8.625 -5.1875 8.625 -5 6 C-4.01 5.34 -3.02 4.68 -2 4 C-0.80767387 1.94996045 -0.80767387 1.94996045 0 0 Z " fill="#FDEAD2" transform="translate(85,92)"/>
<path d="M0 0 C0.33 0.66 0.66 1.32 1 2 C-0.43522725 5.94687492 -1.67830089 9.31100548 -5 12 C-5.99 11.67 -6.98 11.34 -8 11 C-7.59007812 10.45730469 -7.18015625 9.91460937 -6.7578125 9.35546875 C-6.21898437 8.64003906 -5.68015625 7.92460937 -5.125 7.1875 C-4.59132813 6.47980469 -4.05765625 5.77210938 -3.5078125 5.04296875 C-2.29185219 3.39543703 -1.13583859 1.70375789 0 0 Z " fill="#FDE9CD" transform="translate(296,251)"/>
<path d="M0 0 C1.20628008 2.33214148 2.1654738 4.49642139 3 7 C3.66 7.33 4.32 7.66 5 8 C3.68 8 2.36 8 1 8 C-1.25 5.5 -1.25 5.5 -3 3 C-2.01 2.67 -1.02 2.34 0 2 C0 1.34 0 0.68 0 0 Z " fill="#DC6518" transform="translate(108,250)"/>
<path d="M0 0 C1.08899258 4.35597031 1.00108862 5.18840263 -1 9 C-3.125 11.3125 -3.125 11.3125 -5 13 C-5.66 12.67 -6.32 12.34 -7 12 C-4.69 8.04 -2.38 4.08 0 0 Z " fill="#FDEBCF" transform="translate(304,238)"/>
<path d="M0 0 C1.65 0.99 3.3 1.98 5 3 C4.67 5.64 4.34 8.28 4 11 C1.6870518 8.6870518 1.50419025 7.52095125 0.875 4.375 C0.70742187 3.55773437 0.53984375 2.74046875 0.3671875 1.8984375 C0.24601562 1.27195313 0.12484375 0.64546875 0 0 Z " fill="#D96714" transform="translate(89,219)"/>
<path d="M0 0 C0.99 0 1.98 0 3 0 C2.58578031 4.83256305 0.53586014 6.82679218 -3 10 C-2.69201674 8.51988629 -2.378482 7.04092675 -2.0625 5.5625 C-1.88847656 4.73878906 -1.71445313 3.91507813 -1.53515625 3.06640625 C-1 1 -1 1 0 0 Z " fill="#FEEFD7" transform="translate(236,220)"/>
<path d="M0 0 C-3.7559214 3.42931954 -8.23466745 4.56429083 -13 6 C-12.67 5.01 -12.34 4.02 -12 3 C-10.68 3 -9.36 3 -8 3 C-8 2.34 -8 1.68 -8 1 C-5.07175348 0.02391783 -3.04386724 -0.08226668 0 0 Z " fill="#3C73CD" transform="translate(321,313)"/>
<path d="M0 0 C0.99 0.33 1.98 0.66 3 1 C2.34 2.65 1.68 4.3 1 6 C-0.98 6 -2.96 6 -5 6 C-5 5.34 -5 4.68 -5 4 C-3.68 4 -2.36 4 -1 4 C-0.67 2.68 -0.34 1.36 0 0 Z " fill="#EE5E01" transform="translate(281,285)"/>
<path d="M0 0 C3.63 0.33 7.26 0.66 11 1 C11 2.32 11 3.64 11 5 C7.37 3.68 3.74 2.36 0 1 C0 0.67 0 0.34 0 0 Z " fill="#DD7127" transform="translate(203,275)"/>
<path d="M0 0 C0.66 0 1.32 0 2 0 C2.33 2.31 2.66 4.62 3 7 C3.66 7 4.32 7 5 7 C5 9.31 5 11.62 5 14 C2.42924159 10.98552165 1.47792934 8.64020229 0.8125 4.75 C0.65394531 3.85796875 0.49539062 2.9659375 0.33203125 2.046875 C0.22246094 1.37140625 0.11289063 0.6959375 0 0 Z " fill="#FCE1C1" transform="translate(76,216)"/>
<path d="M0 0 C1.32 0.33 2.64 0.66 4 1 C4 1.99 4 2.98 4 4 C5.98 3.67 7.96 3.34 10 3 C9.34 4.65 8.68 6.3 8 8 C1.42857143 4 1.42857143 4 0 0 Z " fill="#FDEAD3" transform="translate(172,175)"/>
<path d="M0 0 C0.33 0.66 0.66 1.32 1 2 C3.01669827 3.13350534 3.01669827 3.13350534 5 4 C5 4.99 5 5.98 5 7 C6.32 7 7.64 7 9 7 C9.33 7.99 9.66 8.98 10 10 C5.07685806 8.76921451 2.73481808 7.31259775 0 3 C0 2.01 0 1.02 0 0 Z " fill="#DA712B" transform="translate(188,158)"/>
<path d="M0 0 C0.33 0.99 0.66 1.98 1 3 C0.67 3.66 0.34 4.32 0 5 C0.66 5 1.32 5 2 5 C2.33 7.31 2.66 9.62 3 12 C0.25722422 8.80009492 -1.6302836 5.99500618 -3 2 C-2.01 1.34 -1.02 0.68 0 0 Z " fill="#DB691C" transform="translate(309,116)"/>
<path d="M0 0 C2.71224618 1.61268692 5.37352812 3.24901874 8 5 C8 5.66 8 6.32 8 7 C8.99 7.33 9.98 7.66 11 8 C10.67 8.66 10.34 9.32 10 10 C6.04 7.36 2.08 4.72 -2 2 C-1.34 1.34 -0.68 0.68 0 0 Z " fill="#FDE7CC" transform="translate(264,89)"/>
<path d="M0 0 C3.40756081 2.27170721 3.8695411 3.17383143 5 7 C5.125 10.3125 5.125 10.3125 5 13 C4.34 13 3.68 13 3 13 C2.87882812 12.38511719 2.75765625 11.77023437 2.6328125 11.13671875 C2.46523438 10.32847656 2.29765625 9.52023437 2.125 8.6875 C1.96257812 7.88699219 1.80015625 7.08648437 1.6328125 6.26171875 C1.05521001 3.74698882 1.05521001 3.74698882 -1 1 C-0.67 0.67 -0.34 0.34 0 0 Z " fill="#D5EEFD" transform="translate(305,331)"/>
<path d="M0 0 C-0.98093954 2.45234885 -1.68703828 3.7809268 -3.875 5.3125 C-6.37345514 6.12082372 -7.52928976 5.71847013 -10 5 C-8.71186658 4.16121545 -7.41936744 3.32913217 -6.125 2.5 C-5.40570313 2.0359375 -4.68640625 1.571875 -3.9453125 1.09375 C-2 0 -2 0 0 0 Z " fill="#DEF3FC" transform="translate(90,304)"/>
<path d="M0 0 C0.33 0 0.66 0 1 0 C2.01924246 6.21369499 2.62926746 10.48351346 -1 16 C-2.26823485 12.34606463 -1.75715321 9.50929974 -1.0625 5.75 C-0.86785156 4.67234375 -0.67320312 3.5946875 -0.47265625 2.484375 C-0.31667969 1.66453125 -0.16070312 0.8446875 0 0 Z " fill="#FCDEBB" transform="translate(347,204)"/>
<path d="M0 0 C0.66 0 1.32 0 2 0 C2 0.99 2 1.98 2 3 C2.66 3 3.32 3 4 3 C4.33 6.63 4.66 10.26 5 14 C3.37723842 11.56585763 2.38255208 9.68680554 1.375 7 C0.98441406 5.9790625 0.98441406 5.9790625 0.5859375 4.9375 C0 3 0 3 0 0 Z " fill="#FEF0D8" transform="translate(309,144)"/>
<path d="M0 0 C0.99 0 1.98 0 3 0 C1.41078475 5.36095277 -0.18972938 10.70843973 -2 16 C-3.3721192 12.29527816 -2.4863484 10.55072117 -1 7 C-0.6186926 4.67402489 -0.27539746 2.34087842 0 0 Z " fill="#FDECD6" transform="translate(89,144)"/>
<path d="M0 0 C2 0 2 0 3.625 1.5 C4.07875 1.995 4.5325 2.49 5 3 C5.33 2.34 5.66 1.68 6 1 C7.2077558 4.62326739 6.54311128 5.64146369 5 9 C2.67527795 6.14693203 1.2491742 3.45925163 0 0 Z " fill="#DD6411" transform="translate(312,128)"/>
<path d="M0 0 C2.31 0 4.62 0 7 0 C7 0.99 7 1.98 7 3 C8.32 3 9.64 3 11 3 C10.67 4.32 10.34 5.64 10 7 C8.33073546 6.02526874 6.66464358 5.04510211 5 4.0625 C4.071875 3.51722656 3.14375 2.97195312 2.1875 2.41015625 C1.465625 1.94480469 0.74375 1.47945312 0 1 C0 0.67 0 0.34 0 0 Z " fill="#DD7023" transform="translate(225,130)"/>
<path d="M0 0 C2.97 0.99 5.94 1.98 9 3 C9 3.99 9 4.98 9 6 C6.36 5.34 3.72 4.68 1 4 C0.67 2.68 0.34 1.36 0 0 Z " fill="#DD6D22" transform="translate(263,57)"/>
<path d="M0 0 C0 0.66 0 1.32 0 2 C-1.23884319 2.72767003 -2.49168341 3.43154815 -3.75 4.125 C-4.79414063 4.71667969 -4.79414063 4.71667969 -5.859375 5.3203125 C-8 6 -8 6 -10.265625 5.1171875 C-10.83796875 4.74851562 -11.4103125 4.37984375 -12 4 C-10.3767313 3.3291288 -8.75132422 2.66342971 -7.125 2 C-6.22007812 1.62875 -5.31515625 1.2575 -4.3828125 0.875 C-2 0 -2 0 0 0 Z " fill="#FDEAD1" transform="translate(311,283)"/>
<path d="M0 0 C0.66 0.33 1.32 0.66 2 1 C-0.97 3.97 -3.94 6.94 -7 10 C-7.33 8.68 -7.66 7.36 -8 6 C-7.01 6 -6.02 6 -5 6 C-5 5.34 -5 4.68 -5 4 C-4.34 4 -3.68 4 -3 4 C-3 3.34 -3 2.68 -3 2 C-2.01 1.34 -1.02 0.68 0 0 Z " fill="#FDE8CC" transform="translate(290,273)"/>
<path d="M0 0 C7.42857143 -0.28571429 7.42857143 -0.28571429 11 2 C9.02 2 7.04 2 5 2 C5 2.66 5 3.32 5 4 C3.0625 3.6875 3.0625 3.6875 1 3 C0.67 2.01 0.34 1.02 0 0 Z " fill="#3676CA" transform="translate(155,273)"/>
<path d="M0 0 C1.99375109 2.99062663 2.89428582 5.60914317 4 9 C4.33 9.33 4.66 9.66 5 10 C5.04063832 11.66617115 5.042721 13.33388095 5 15 C1.04397828 10.14488244 -0.29212746 6.28074033 0 0 Z " fill="#FEEFD5" transform="translate(167,160)"/>
<path d="M0 0 C1.32 0.33 2.64 0.66 4 1 C1.69 3.31 -0.62 5.62 -3 8 C-3.33 6.68 -3.66 5.36 -4 4 C-2.3125 1.6875 -2.3125 1.6875 0 0 Z " fill="#E27532" transform="translate(109,97)"/>
<path d="M0 0 C-4.18586481 3.18923033 -6.70558305 4.50423019 -12 4 C-11 2 -11 2 -9.00390625 1.11328125 C-7.79541016 0.71689453 -7.79541016 0.71689453 -6.5625 0.3125 C-5.75941406 0.04050781 -4.95632813 -0.23148437 -4.12890625 -0.51171875 C-2 -1 -2 -1 0 0 Z " fill="#FEEDD0" transform="translate(299,289)"/>
<path d="M0 0 C2.40072955 2.88087546 4.47291037 5.56404834 6 9 C4.02 8.34 2.04 7.68 0 7 C0 4.69 0 2.38 0 0 Z " fill="#D96C27" transform="translate(169,171)"/>
<path d="M0 0 C0.66 0.33 1.32 0.66 2 1 C-0.10515339 4.72450216 -1.24267224 6.6795921 -5.25 8.375 C-6.61125 8.684375 -6.61125 8.684375 -8 9 C-7.04270084 7.87411986 -6.08412105 6.7493285 -5.125 5.625 C-4.59132813 4.99851562 -4.05765625 4.37203125 -3.5078125 3.7265625 C-2.38567993 2.44163349 -1.20628025 1.20628025 0 0 Z " fill="#FDEFD5" transform="translate(117,93)"/>
<path d="M0 0 C-0.5625 1.875 -0.5625 1.875 -2 4 C-5.625 5.25 -5.625 5.25 -9 6 C-3.15384615 0 -3.15384615 0 0 0 Z " fill="#447BD0" transform="translate(96,313)"/>
<path d="M0 0 C4.95 1.98 4.95 1.98 10 4 C10 4.66 10 5.32 10 6 C6.7 5.01 3.4 4.02 0 3 C0 2.01 0 1.02 0 0 Z " fill="#3974CD" transform="translate(195,284)"/>
<path d="M0 0 C0.66 0.33 1.32 0.66 2 1 C-2.18461538 6.78461538 -2.18461538 6.78461538 -6.3125 7.875 C-7.6428125 7.936875 -7.6428125 7.936875 -9 8 C-5.25 5 -5.25 5 -3 5 C-2.690625 4.360625 -2.38125 3.72125 -2.0625 3.0625 C-1 1 -1 1 0 0 Z " fill="#FEE3C5" transform="translate(233,145)"/>
<path d="M0 0 C0.79921875 0.00902344 1.5984375 0.01804687 2.421875 0.02734375 C3.02515625 0.03894531 3.6284375 0.05054687 4.25 0.0625 C4.25 0.3925 4.25 0.7225 4.25 1.0625 C3.0434375 1.248125 3.0434375 1.248125 1.8125 1.4375 C0.966875 1.64375 0.12125 1.85 -0.75 2.0625 C-1.08 2.7225 -1.41 3.3825 -1.75 4.0625 C-2.74 4.0625 -3.73 4.0625 -4.75 4.0625 C-4.75 3.4025 -4.75 2.7425 -4.75 2.0625 C-6.07 1.7325 -7.39 1.4025 -8.75 1.0625 C-5.75519083 0.1901588 -3.11424089 -0.04579766 0 0 Z " fill="#FDEEDA" transform="translate(176.75,65.9375)"/>
<path d="M0 0 C1.32 0.33 2.64 0.66 4 1 C2.54462432 1.83848804 1.08559627 2.67063934 -0.375 3.5 C-1.59316406 4.19609375 -1.59316406 4.19609375 -2.8359375 4.90625 C-5 6 -5 6 -7 6 C-7 5.01 -7 4.02 -7 3 C-3.535 2.505 -3.535 2.505 0 2 C0 1.34 0 0.68 0 0 Z " fill="#FEECD2" transform="translate(131,57)"/>
<path d="M0 0 C-0.33 0.99 -0.66 1.98 -1 3 C-3.31 3.33 -5.62 3.66 -8 4 C-8.33 3.34 -8.66 2.68 -9 2 C-2.25 0 -2.25 0 0 0 Z " fill="#407DCE" transform="translate(300,299)"/>
<path d="M0 0 C3.96 0.33 7.92 0.66 12 1 C12 1.66 12 2.32 12 3 C12.66 3.33 13.32 3.66 14 4 C9.23649415 3.28547412 4.65798604 2.20465156 0 1 C0 0.67 0 0.34 0 0 Z " fill="#D8712F" transform="translate(170,264)"/>
<path d="M0 0 C1.57554035 2.88628401 2.46276373 5.53342384 3.125 8.75 C3.29257812 9.54921875 3.46015625 10.3484375 3.6328125 11.171875 C3.81457031 12.07679688 3.81457031 12.07679688 4 13 C2 11.5625 2 11.5625 0 9 C-0.35442445 5.97175582 -0.23347235 3.03514061 0 0 Z " fill="#FCDCB4" transform="translate(55,218)"/>
<path d="M0 0 C0 3 0 3 -1 6 C-3.64 6 -6.28 6 -9 6 C-6 4 -3 2 0 0 Z " fill="#FEE9CB" transform="translate(217,215)"/>
<path d="M0 0 C1.65 1.65 3.3 3.3 5 5 C2.92446352 5.5534764 1.15634036 6 -1 6 C-0.67 4.02 -0.34 2.04 0 0 Z " fill="#DF6E23" transform="translate(291,116)"/>
<path d="M0 0 C0.33 0.66 0.66 1.32 1 2 C0.00390625 3.9453125 0.00390625 3.9453125 -1.4375 6.125 C-1.91058594 6.84945312 -2.38367188 7.57390625 -2.87109375 8.3203125 C-3.24363281 8.87460938 -3.61617188 9.42890625 -4 10 C-4.99 9.67 -5.98 9.34 -7 9 C-4.69 6.03 -2.38 3.06 0 0 Z " fill="#D56D29" transform="translate(85,96)"/>
<path d="M0 0 C1.43836751 0.11458693 2.87570966 0.24209116 4.3125 0.375 C5.51326172 0.47941406 5.51326172 0.47941406 6.73828125 0.5859375 C9 1 9 1 12 3 C9.03 3 6.06 3 3 3 C3 2.34 3 1.68 3 1 C2.01 0.67 1.02 0.34 0 0 Z " fill="#407BC9" transform="translate(147,304)"/>
<path d="M0 0 C0.66 1.32 1.32 2.64 2 4 C0.68 4.99 -0.64 5.98 -2 7 C-2.6875 5.1875 -2.6875 5.1875 -3 3 C-1.5625 1.25 -1.5625 1.25 0 0 Z " fill="#FEF8E7" transform="translate(314,279)"/>
<path d="M0 0 C0.33 0 0.66 0 1 0 C1 1.65 1 3.3 1 5 C0.34 5 -0.32 5 -1 5 C-1 5.66 -1 6.32 -1 7 C-2.32 7.33 -3.64 7.66 -5 8 C-1.125 1.125 -1.125 1.125 0 0 Z " fill="#D7712E" transform="translate(306,256)"/>
<path d="M0 0 C3.3 0 6.6 0 10 0 C10 0.33 10 0.66 10 1 C8.3603125 1.433125 8.3603125 1.433125 6.6875 1.875 C2.95986155 2.81893204 2.95986155 2.81893204 0 5 C-0.33 4.01 -0.66 3.02 -1 2 C-0.67 1.34 -0.34 0.68 0 0 Z " fill="#D76B1E" transform="translate(166,210)"/>
<path d="M0 0 C1.39431504 2.78863007 1.25660094 4.92078868 1 8 C0.01 8.66 -0.98 9.32 -2 10 C-2.1953125 3.9453125 -2.1953125 3.9453125 -2 2 C-1.34 1.34 -0.68 0.68 0 0 Z " fill="#DD6918" transform="translate(77,107)"/>
<path d="M0 0 C3.28788824 3.11016455 5.83735988 6.01618925 8 10 C7.34 10 6.68 10 6 10 C5.67 9.34 5.34 8.68 5 8 C4.01 7.67 3.02 7.34 2 7 C0.8125 3.4375 0.8125 3.4375 0 0 Z " fill="#FCE1C2" transform="translate(294,104)"/>
<path d="M0 0 C0.33 0.66 0.66 1.32 1 2 C1.66 2.33 2.32 2.66 3 3 C2.67 3.66 2.34 4.32 2 5 C-0.64 5 -3.28 5 -6 5 C-2.25 1.125 -2.25 1.125 0 0 Z " fill="#DD6E1F" transform="translate(121,65)"/>
<path d="M0 0 C3.125 0.375 3.125 0.375 6 1 C6 1.66 6 2.32 6 3 C3.36 3.33 0.72 3.66 -2 4 C-2 2 -2 2 0 0 Z " fill="#3879CE" transform="translate(194,320)"/>
<path d="M0 0 C5.75 -0.125 5.75 -0.125 8 1 C8 1.99 8 2.98 8 4 C5.64828869 3.40138258 3.3140622 2.73075648 1 2 C0.67 1.34 0.34 0.68 0 0 Z " fill="#477DCF" transform="translate(178,300)"/>
<path d="M0 0 C0 0.66 0 1.32 0 2 C-2.97 1.67 -5.94 1.34 -9 1 C-4.82091936 -1.08954032 -4.19589427 -1.16552619 0 0 Z " fill="#D9F2FC" transform="translate(244,299)"/>
<path d="M0 0 C1.70884005 1.62339805 3.37446717 3.29319053 5 5 C5 5.66 5 6.32 5 7 C5.66 7.33 6.32 7.66 7 8 C5.35 7.67 3.7 7.34 2 7 C2 6.01 2 5.02 2 4 C1.34 4 0.68 4 0 4 C0 2.68 0 1.36 0 0 Z " fill="#FDE7C8" transform="translate(105,253)"/>
<path d="M0 0 C0.33 0 0.66 0 1 0 C1 1.98 1 3.96 1 6 C0.01 6.495 0.01 6.495 -1 7 C-1.33 7.99 -1.66 8.98 -2 10 C-2.66 10 -3.32 10 -4 10 C-2.8905928 6.51329166 -1.73662334 3.22515763 0 0 Z " fill="#DB7027" transform="translate(315,240)"/>
<path d="M0 0 C2.64 0.66 5.28 1.32 8 2 C8 2.66 8 3.32 8 4 C8.66 4 9.32 4 10 4 C10 4.66 10 5.32 10 6 C6.40992874 4.66654496 3.20429093 3.1056769 0 1 C0 0.67 0 0.34 0 0 Z " fill="#D97631" transform="translate(176,211)"/>
<path d="M0 0 C0.66 0 1.32 0 2 0 C2.1875 2.875 2.1875 2.875 2 6 C1.01 6.66 0.02 7.32 -1 8 C-1.125 2.25 -1.125 2.25 0 0 Z " fill="#DC681A" transform="translate(89,152)"/>
<path d="M0 0 C0.66 0.33 1.32 0.66 2 1 C-1.75 7.75 -1.75 7.75 -4 10 C-3.51171875 3.9453125 -3.51171875 3.9453125 -3 2 C-2.01 1.34 -1.02 0.68 0 0 Z " fill="#D56F2C" transform="translate(171,138)"/>
<path d="M0 0 C2.97 0.495 2.97 0.495 6 1 C6.33 2.32 6.66 3.64 7 5 C6.01 5 5.02 5 4 5 C1.8125 2.5 1.8125 2.5 0 0 Z " fill="#E17635" transform="translate(288,98)"/>
<path d="M0 0 C3.125 -0.1875 3.125 -0.1875 6 0 C5.67 0.99 5.34 1.98 5 3 C2.69 3 0.38 3 -2 3 C-1.34 2.01 -0.68 1.02 0 0 Z " fill="#DE620B" transform="translate(127,98)"/>
<path d="M0 0 C0.12375 0.639375 0.2475 1.27875 0.375 1.9375 C0.684375 2.9584375 0.684375 2.9584375 1 4 C1.66 4.33 2.32 4.66 3 5 C2.67 5.66 2.34 6.32 2 7 C-0.31 5.35 -2.62 3.7 -5 2 C-2 0 -2 0 0 0 Z " fill="#FCE1C8" transform="translate(292,69)"/>
<path d="M0 0 C-2 2 -2 2 -3.9453125 2.1953125 C-5.96354167 2.13020833 -7.98177083 2.06510417 -10 2 C-6.80505194 -1.19494806 -4.22040044 -1.35655728 0 0 Z " fill="#FCE4CB" transform="translate(168,69)"/>
<path d="M0 0 C3.94727588 -0.17942163 6.5980513 -0.09350689 10 2 C10 2.66 10 3.32 10 4 C6.7 3.01 3.4 2.02 0 1 C0 0.67 0 0.34 0 0 Z " fill="#417CCA" transform="translate(187,339)"/>
<path d="M0 0 C2.96865509 2.54456151 4.3619751 5.48994665 6 9 C5.01 9.33 4.02 9.66 3 10 C2.49596232 8.70990357 1.99690074 7.41786211 1.5 6.125 C1.2215625 5.40570313 0.943125 4.68640625 0.65625 3.9453125 C0 2 0 2 0 0 Z " fill="#FCE8D3" transform="translate(72,261)"/>
<path d="M0 0 C2.64 0.33 5.28 0.66 8 1 C8 1.99 8 2.98 8 4 C5.64828869 3.40138258 3.3140622 2.73075648 1 2 C0.67 1.34 0.34 0.68 0 0 Z " fill="#FCEBD9" transform="translate(184,185)"/>
<path d="M0 0 C2.18975773 3.28463659 2.99806563 6.20696275 4 10 C3.01 10 2.02 10 1 10 C0.67 6.7 0.34 3.4 0 0 Z " fill="#D5712A" transform="translate(306,139)"/>
<path d="M0 0 C0.99 0 1.98 0 3 0 C5.125 4.625 5.125 4.625 4 8 C0 2.25 0 2.25 0 0 Z " fill="#FDE8D1" transform="translate(295,119)"/>
<path d="M0 0 C2.64 0.66 5.28 1.32 8 2 C7.67 3.32 7.34 4.64 7 6 C5.83054208 5.19152271 4.66449539 4.37810888 3.5 3.5625 C2.8503125 3.11003906 2.200625 2.65757813 1.53125 2.19140625 C1.0259375 1.79824219 0.520625 1.40507813 0 1 C0 0.67 0 0.34 0 0 Z " fill="#D87025" transform="translate(268,82)"/>
<path d="M0 0 C2.97 0 5.94 0 9 0 C9.33 0.99 9.66 1.98 10 3 C6.7 2.34 3.4 1.68 0 1 C0 0.67 0 0.34 0 0 Z " fill="#497DCF" transform="translate(144,324)"/>
<path d="M0 0 C0.66 0.33 1.32 0.66 2 1 C1.01 2.485 1.01 2.485 0 4 C-3.625 4.6875 -3.625 4.6875 -7 5 C-4.702779 3.25728062 -2.40133271 1.60088848 0 0 Z " fill="#FDE6C9" transform="translate(260,284)"/>
<path d="M0 0 C1.32 0.66 2.64 1.32 4 2 C2.35 3.65 0.7 5.3 -1 7 C-1.04254356 5.00045254 -1.04080783 2.99958364 -1 1 C-0.67 0.67 -0.34 0.34 0 0 Z " fill="#FEF1DC" transform="translate(295,264)"/>
<path d="M0 0 C2.71595986 3.1540179 3.96846241 4.87384964 5 9 C2.69 7.02 0.38 5.04 -2 3 C-1 1 -1 1 0 0 Z " fill="#DD6A20" transform="translate(86,244)"/>
<path d="M0 0 C3.465 1.98 3.465 1.98 7 4 C6.01 4.66 5.02 5.32 4 6 C3.01 5.34 2.02 4.68 1 4 C1.33 3.34 1.66 2.68 2 2 C1.34 2 0.68 2 0 2 C0 1.34 0 0.68 0 0 Z " fill="#D9691E" transform="translate(264,92)"/>
<path d="M0 0 C3.55780196 0.60990891 6.6828589 1.5783681 10 3 C9.67 3.66 9.34 4.32 9 5 C5.54074837 3.7508258 2.85306797 2.32472205 0 0 Z " fill="#FCE6CC" transform="translate(269,59)"/>
</svg>
